<svg width="5202" height="2013" viewBox="0 0 5202 2013" fill="none" xmlns="http://www.w3.org/2000/svg">
<path d="M361 1317.14C357.097 1317.14 353.232 1317.81 349.626 1319.1C346.02 1320.39 342.743 1322.29 339.983 1324.67C337.223 1327.06 335.034 1329.9 333.54 1333.02C332.046 1336.14 331.277 1339.48 331.277 1342.86C331.277 1346.23 332.046 1349.58 333.54 1352.7C335.034 1355.82 337.223 1358.65 339.983 1361.04C342.743 1363.43 346.02 1365.32 349.626 1366.61C353.232 1367.91 357.097 1368.57 361 1368.57C368.883 1368.57 376.443 1365.86 382.017 1361.04C387.592 1356.22 390.723 1349.68 390.723 1342.86C390.723 1336.04 387.592 1329.5 382.017 1324.67C376.443 1319.85 368.883 1317.14 361 1317.14ZM311.462 1342.86C311.462 1331.49 316.681 1320.59 325.971 1312.55C335.262 1304.52 347.862 1300 361 1300C374.139 1300 386.739 1304.52 396.029 1312.55C405.319 1320.59 410.538 1331.49 410.538 1342.86C410.538 1354.22 405.319 1365.12 396.029 1373.16C386.739 1381.2 374.139 1385.71 361 1385.71C347.862 1385.71 335.262 1381.2 325.971 1373.16C316.681 1365.12 311.462 1354.22 311.462 1342.86ZM325.518 1409.36C327.261 1410.48 329.507 1411.79 332.189 1413.1C338.966 1416.41 348.9 1419.84 360.987 1419.84C373.074 1419.84 383.022 1416.41 389.798 1413.1C392.48 1411.79 394.726 1410.48 396.47 1409.36C398.953 1409.93 401.415 1410.56 403.854 1411.26L416.536 1414.86C426.047 1417.57 433.233 1424.14 435.796 1432.26L441.041 1464.99C442.031 1471.21 438.267 1475.73 433.035 1476.8C419.204 1479.66 395.888 1482.86 361 1482.86C326.112 1482.86 302.783 1479.66 288.952 1476.8C283.734 1475.73 279.969 1471.21 280.947 1464.99L286.191 1432.26C287.494 1428.21 289.936 1424.5 293.299 1421.46C296.662 1418.43 300.841 1416.16 305.465 1414.86L318.146 1411.26C320.577 1410.57 323.034 1409.94 325.518 1409.36ZM334.897 1393.87L331.053 1390.59L325.742 1391.65C321.11 1392.56 316.513 1393.67 311.951 1394.97L299.269 1398.57C291.391 1400.79 284.288 1404.69 278.62 1409.92C272.952 1415.14 268.904 1421.53 266.851 1428.47L266.719 1428.93L261.329 1462.64C259.203 1475.94 267.432 1489.99 284.368 1493.47C299.824 1496.66 324.685 1500 360.987 1500C397.302 1500 422.163 1496.66 437.619 1493.49C454.555 1489.99 462.798 1475.94 460.671 1462.65L455.268 1428.94L455.136 1428.48C453.084 1421.53 449.035 1415.15 443.364 1409.92C437.694 1404.69 430.587 1400.79 422.705 1398.57L410.036 1394.97C405.483 1393.68 400.886 1392.57 396.245 1391.66L390.934 1390.59L387.104 1393.86L387.09 1393.87C386.58 1394.28 386.051 1394.66 385.505 1395.03C383.802 1396.2 381.991 1397.25 380.089 1398.16C374.281 1401.06 367.708 1402.63 361 1402.7C354.293 1402.63 347.719 1401.06 341.911 1398.16C339.416 1396.94 337.057 1395.5 334.897 1393.87Z" fill="#006CA9"/>
<path d="M809 1317.14C805.097 1317.14 801.232 1317.81 797.626 1319.1C794.02 1320.39 790.743 1322.29 787.983 1324.67C785.223 1327.06 783.034 1329.9 781.54 1333.02C780.046 1336.14 779.277 1339.48 779.277 1342.86C779.277 1346.23 780.046 1349.58 781.54 1352.7C783.034 1355.82 785.223 1358.65 787.983 1361.04C790.743 1363.43 794.02 1365.32 797.626 1366.61C801.232 1367.91 805.097 1368.57 809 1368.57C816.883 1368.57 824.443 1365.86 830.017 1361.04C835.592 1356.22 838.723 1349.68 838.723 1342.86C838.723 1336.04 835.592 1329.5 830.017 1324.67C824.443 1319.85 816.883 1317.14 809 1317.14ZM759.462 1342.86C759.462 1331.49 764.681 1320.59 773.971 1312.55C783.262 1304.52 795.862 1300 809 1300C822.139 1300 834.739 1304.52 844.029 1312.55C853.319 1320.59 858.538 1331.49 858.538 1342.86C858.538 1354.22 853.319 1365.12 844.029 1373.16C834.739 1381.2 822.139 1385.71 809 1385.71C795.862 1385.71 783.262 1381.2 773.971 1373.16C764.681 1365.12 759.462 1354.22 759.462 1342.86ZM773.518 1409.36C775.261 1410.48 777.507 1411.79 780.189 1413.1C786.966 1416.41 796.9 1419.84 808.987 1419.84C821.074 1419.84 831.022 1416.41 837.798 1413.1C840.48 1411.79 842.726 1410.48 844.47 1409.36C846.953 1409.93 849.415 1410.56 851.854 1411.26L864.536 1414.86C874.047 1417.57 881.233 1424.14 883.796 1432.26L889.041 1464.99C890.031 1471.21 886.267 1475.73 881.035 1476.8C867.204 1479.66 843.888 1482.86 809 1482.86C774.112 1482.86 750.783 1479.66 736.952 1476.8C731.734 1475.73 727.969 1471.21 728.947 1464.99L734.191 1432.26C735.494 1428.21 737.936 1424.5 741.299 1421.46C744.662 1418.43 748.841 1416.16 753.465 1414.86L766.146 1411.26C768.577 1410.57 771.034 1409.94 773.518 1409.36ZM782.897 1393.87L779.053 1390.59L773.742 1391.65C769.11 1392.56 764.513 1393.67 759.951 1394.97L747.269 1398.57C739.391 1400.79 732.288 1404.69 726.62 1409.92C720.952 1415.14 716.904 1421.53 714.851 1428.47L714.719 1428.93L709.329 1462.64C707.203 1475.94 715.432 1489.99 732.368 1493.47C747.824 1496.66 772.685 1500 808.987 1500C845.302 1500 870.163 1496.66 885.619 1493.49C902.555 1489.99 910.798 1475.94 908.671 1462.65L903.268 1428.94L903.136 1428.48C901.084 1421.53 897.035 1415.15 891.364 1409.92C885.694 1404.69 878.587 1400.79 870.705 1398.57L858.036 1394.97C853.483 1393.68 848.886 1392.57 844.245 1391.66L838.934 1390.59L835.104 1393.86L835.09 1393.87C834.58 1394.28 834.051 1394.66 833.505 1395.03C831.802 1396.2 829.991 1397.25 828.089 1398.16C822.281 1401.06 815.708 1402.63 809 1402.7C802.293 1402.63 795.719 1401.06 789.911 1398.16C787.416 1396.94 785.057 1395.5 782.897 1393.87Z" fill="#006CA9"/>
<path d="M585 1317.14C581.097 1317.14 577.232 1317.81 573.626 1319.1C570.02 1320.39 566.743 1322.29 563.983 1324.67C561.223 1327.06 559.034 1329.9 557.54 1333.02C556.046 1336.14 555.277 1339.48 555.277 1342.86C555.277 1346.23 556.046 1349.58 557.54 1352.7C559.034 1355.82 561.223 1358.65 563.983 1361.04C566.743 1363.43 570.02 1365.32 573.626 1366.61C577.232 1367.91 581.097 1368.57 585 1368.57C592.883 1368.57 600.443 1365.86 606.017 1361.04C611.592 1356.22 614.723 1349.68 614.723 1342.86C614.723 1336.04 611.592 1329.5 606.017 1324.67C600.443 1319.85 592.883 1317.14 585 1317.14ZM535.462 1342.86C535.462 1331.49 540.681 1320.59 549.971 1312.55C559.262 1304.52 571.862 1300 585 1300C598.139 1300 610.739 1304.52 620.029 1312.55C629.319 1320.59 634.538 1331.49 634.538 1342.86C634.538 1354.22 629.319 1365.12 620.029 1373.16C610.739 1381.2 598.139 1385.71 585 1385.71C571.862 1385.71 559.262 1381.2 549.971 1373.16C540.681 1365.12 535.462 1354.22 535.462 1342.86ZM549.518 1409.36C551.261 1410.48 553.507 1411.79 556.189 1413.1C562.966 1416.41 572.9 1419.84 584.987 1419.84C597.074 1419.84 607.022 1416.41 613.798 1413.1C616.48 1411.79 618.726 1410.48 620.47 1409.36C622.953 1409.93 625.415 1410.56 627.854 1411.26L640.536 1414.86C650.047 1417.57 657.233 1424.14 659.796 1432.26L665.041 1464.99C666.031 1471.21 662.267 1475.73 657.035 1476.8C643.204 1479.66 619.888 1482.86 585 1482.86C550.112 1482.86 526.783 1479.66 512.952 1476.8C507.734 1475.73 503.969 1471.21 504.947 1464.99L510.191 1432.26C511.494 1428.21 513.936 1424.5 517.299 1421.46C520.662 1418.43 524.841 1416.16 529.465 1414.86L542.146 1411.26C544.577 1410.57 547.034 1409.94 549.518 1409.36ZM558.897 1393.87L555.053 1390.59L549.742 1391.65C545.11 1392.56 540.513 1393.67 535.951 1394.97L523.269 1398.57C515.391 1400.79 508.288 1404.69 502.62 1409.92C496.952 1415.14 492.904 1421.53 490.851 1428.47L490.719 1428.93L485.329 1462.64C483.203 1475.94 491.432 1489.99 508.368 1493.47C523.824 1496.66 548.685 1500 584.987 1500C621.302 1500 646.163 1496.66 661.619 1493.49C678.555 1489.99 686.798 1475.94 684.671 1462.65L679.268 1428.94L679.136 1428.48C677.084 1421.53 673.035 1415.15 667.364 1409.92C661.694 1404.69 654.587 1400.79 646.705 1398.57L634.036 1394.97C629.483 1393.68 624.886 1392.57 620.245 1391.66L614.934 1390.59L611.104 1393.86L611.09 1393.87C610.58 1394.28 610.051 1394.66 609.505 1395.03C607.802 1396.2 605.991 1397.25 604.089 1398.16C598.281 1401.06 591.708 1402.63 585 1402.7C578.293 1402.63 571.719 1401.06 565.911 1398.16C563.416 1396.94 561.057 1395.5 558.897 1393.87Z" fill="#006CA9"/>
<path d="M1681 861.143C1677.1 861.143 1673.23 861.808 1669.63 863.1C1666.02 864.393 1662.74 866.287 1659.98 868.674C1657.22 871.062 1655.03 873.897 1653.54 877.017C1652.05 880.137 1651.28 883.48 1651.28 886.857C1651.28 890.234 1652.05 893.578 1653.54 896.698C1655.03 899.817 1657.22 902.652 1659.98 905.04C1662.74 907.428 1666.02 909.322 1669.63 910.614C1673.23 911.906 1677.1 912.571 1681 912.571C1688.88 912.571 1696.44 909.862 1702.02 905.04C1707.59 900.218 1710.72 893.677 1710.72 886.857C1710.72 880.037 1707.59 873.497 1702.02 868.674C1696.44 863.852 1688.88 861.143 1681 861.143ZM1631.46 886.857C1631.46 875.491 1636.68 864.59 1645.97 856.553C1655.26 848.515 1667.86 844 1681 844C1694.14 844 1706.74 848.515 1716.03 856.553C1725.32 864.59 1730.54 875.491 1730.54 886.857C1730.54 898.224 1725.32 909.124 1716.03 917.162C1706.74 925.199 1694.14 929.714 1681 929.714C1667.86 929.714 1655.26 925.199 1645.97 917.162C1636.68 909.124 1631.46 898.224 1631.46 886.857ZM1645.52 953.36C1647.26 954.48 1649.51 955.794 1652.19 957.097C1658.97 960.411 1668.9 963.84 1680.99 963.84C1693.07 963.84 1703.02 960.411 1709.8 957.097C1712.48 955.794 1714.73 954.48 1716.47 953.36C1718.95 953.931 1721.41 954.564 1723.85 955.257L1736.54 958.857C1746.05 961.566 1753.23 968.137 1755.8 976.263L1761.04 1008.99C1762.03 1015.21 1758.27 1019.73 1753.04 1020.8C1739.2 1023.66 1715.89 1026.86 1681 1026.86C1646.11 1026.86 1622.78 1023.66 1608.95 1020.8C1603.73 1019.73 1599.97 1015.21 1600.95 1008.99L1606.19 976.263C1607.49 972.211 1609.94 968.501 1613.3 965.464C1616.66 962.427 1620.84 960.157 1625.46 958.857L1638.15 955.257C1640.58 954.571 1643.03 953.939 1645.52 953.36ZM1654.9 937.874L1651.05 934.594L1645.74 935.646C1641.11 936.56 1636.51 937.669 1631.95 938.971L1619.27 942.571C1611.39 944.787 1604.29 948.69 1598.62 953.917C1592.95 959.144 1588.9 965.525 1586.85 972.469L1586.72 972.926L1581.33 1006.64C1579.2 1019.94 1587.43 1033.99 1604.37 1037.47C1619.82 1040.66 1644.69 1044 1680.99 1044C1717.3 1044 1742.16 1040.66 1757.62 1037.49C1774.55 1033.99 1782.8 1019.94 1780.67 1006.65L1775.27 972.937L1775.14 972.48C1773.08 965.533 1769.03 959.148 1763.36 953.919C1757.69 948.69 1750.59 944.786 1742.7 942.571L1730.04 938.971C1725.48 937.676 1720.89 936.571 1716.24 935.657L1710.93 934.594L1707.1 937.863L1707.09 937.874C1706.58 938.277 1706.05 938.662 1705.51 939.029C1703.8 940.199 1701.99 941.247 1700.09 942.16C1694.28 945.064 1687.71 946.626 1681 946.697C1674.29 946.626 1667.72 945.064 1661.91 942.16C1659.42 940.94 1657.06 939.505 1654.9 937.874Z" fill="#006CA9"/>
<path d="M2129 861.143C2125.1 861.143 2121.23 861.808 2117.63 863.1C2114.02 864.393 2110.74 866.287 2107.98 868.674C2105.22 871.062 2103.03 873.897 2101.54 877.017C2100.05 880.137 2099.28 883.48 2099.28 886.857C2099.28 890.234 2100.05 893.578 2101.54 896.698C2103.03 899.817 2105.22 902.652 2107.98 905.04C2110.74 907.428 2114.02 909.322 2117.63 910.614C2121.23 911.906 2125.1 912.571 2129 912.571C2136.88 912.571 2144.44 909.862 2150.02 905.04C2155.59 900.218 2158.72 893.677 2158.72 886.857C2158.72 880.037 2155.59 873.497 2150.02 868.674C2144.44 863.852 2136.88 861.143 2129 861.143ZM2079.46 886.857C2079.46 875.491 2084.68 864.59 2093.97 856.553C2103.26 848.515 2115.86 844 2129 844C2142.14 844 2154.74 848.515 2164.03 856.553C2173.32 864.59 2178.54 875.491 2178.54 886.857C2178.54 898.224 2173.32 909.124 2164.03 917.162C2154.74 925.199 2142.14 929.714 2129 929.714C2115.86 929.714 2103.26 925.199 2093.97 917.162C2084.68 909.124 2079.46 898.224 2079.46 886.857ZM2093.52 953.36C2095.26 954.48 2097.51 955.794 2100.19 957.097C2106.97 960.411 2116.9 963.84 2128.99 963.84C2141.07 963.84 2151.02 960.411 2157.8 957.097C2160.48 955.794 2162.73 954.48 2164.47 953.36C2166.95 953.931 2169.41 954.564 2171.85 955.257L2184.54 958.857C2194.05 961.566 2201.23 968.137 2203.8 976.263L2209.04 1008.99C2210.03 1015.21 2206.27 1019.73 2201.04 1020.8C2187.2 1023.66 2163.89 1026.86 2129 1026.86C2094.11 1026.86 2070.78 1023.66 2056.95 1020.8C2051.73 1019.73 2047.97 1015.21 2048.95 1008.99L2054.19 976.263C2055.49 972.211 2057.94 968.501 2061.3 965.464C2064.66 962.427 2068.84 960.157 2073.46 958.857L2086.15 955.257C2088.58 954.571 2091.03 953.939 2093.52 953.36ZM2102.9 937.874L2099.05 934.594L2093.74 935.646C2089.11 936.56 2084.51 937.669 2079.95 938.971L2067.27 942.571C2059.39 944.787 2052.29 948.69 2046.62 953.917C2040.95 959.144 2036.9 965.525 2034.85 972.469L2034.72 972.926L2029.33 1006.64C2027.2 1019.94 2035.43 1033.99 2052.37 1037.47C2067.82 1040.66 2092.69 1044 2128.99 1044C2165.3 1044 2190.16 1040.66 2205.62 1037.49C2222.55 1033.99 2230.8 1019.94 2228.67 1006.65L2223.27 972.937L2223.14 972.48C2221.08 965.533 2217.03 959.148 2211.36 953.919C2205.69 948.69 2198.59 944.786 2190.7 942.571L2178.04 938.971C2173.48 937.676 2168.89 936.571 2164.24 935.657L2158.93 934.594L2155.1 937.863L2155.09 937.874C2154.58 938.277 2154.05 938.662 2153.51 939.029C2151.8 940.199 2149.99 941.247 2148.09 942.16C2142.28 945.064 2135.71 946.626 2129 946.697C2122.29 946.626 2115.72 945.064 2109.91 942.16C2107.42 940.94 2105.06 939.505 2102.9 937.874Z" fill="#006CA9"/>
<path d="M1905 861.143C1901.1 861.143 1897.23 861.808 1893.63 863.1C1890.02 864.393 1886.74 866.287 1883.98 868.674C1881.22 871.062 1879.03 873.897 1877.54 877.017C1876.05 880.137 1875.28 883.48 1875.28 886.857C1875.28 890.234 1876.05 893.578 1877.54 896.698C1879.03 899.817 1881.22 902.652 1883.98 905.04C1886.74 907.428 1890.02 909.322 1893.63 910.614C1897.23 911.906 1901.1 912.571 1905 912.571C1912.88 912.571 1920.44 909.862 1926.02 905.04C1931.59 900.218 1934.72 893.677 1934.72 886.857C1934.72 880.037 1931.59 873.497 1926.02 868.674C1920.44 863.852 1912.88 861.143 1905 861.143ZM1855.46 886.857C1855.46 875.491 1860.68 864.59 1869.97 856.553C1879.26 848.515 1891.86 844 1905 844C1918.14 844 1930.74 848.515 1940.03 856.553C1949.32 864.59 1954.54 875.491 1954.54 886.857C1954.54 898.224 1949.32 909.124 1940.03 917.162C1930.74 925.199 1918.14 929.714 1905 929.714C1891.86 929.714 1879.26 925.199 1869.97 917.162C1860.68 909.124 1855.46 898.224 1855.46 886.857ZM1869.52 953.36C1871.26 954.48 1873.51 955.794 1876.19 957.097C1882.97 960.411 1892.9 963.84 1904.99 963.84C1917.07 963.84 1927.02 960.411 1933.8 957.097C1936.48 955.794 1938.73 954.48 1940.47 953.36C1942.95 953.931 1945.41 954.564 1947.85 955.257L1960.54 958.857C1970.05 961.566 1977.23 968.137 1979.8 976.263L1985.04 1008.99C1986.03 1015.21 1982.27 1019.73 1977.04 1020.8C1963.2 1023.66 1939.89 1026.86 1905 1026.86C1870.11 1026.86 1846.78 1023.66 1832.95 1020.8C1827.73 1019.73 1823.97 1015.21 1824.95 1008.99L1830.19 976.263C1831.49 972.211 1833.94 968.501 1837.3 965.464C1840.66 962.427 1844.84 960.157 1849.46 958.857L1862.15 955.257C1864.58 954.571 1867.03 953.939 1869.52 953.36ZM1878.9 937.874L1875.05 934.594L1869.74 935.646C1865.11 936.56 1860.51 937.669 1855.95 938.971L1843.27 942.571C1835.39 944.787 1828.29 948.69 1822.62 953.917C1816.95 959.144 1812.9 965.525 1810.85 972.469L1810.72 972.926L1805.33 1006.64C1803.2 1019.94 1811.43 1033.99 1828.37 1037.47C1843.82 1040.66 1868.69 1044 1904.99 1044C1941.3 1044 1966.16 1040.66 1981.62 1037.49C1998.55 1033.99 2006.8 1019.94 2004.67 1006.65L1999.27 972.937L1999.14 972.48C1997.08 965.533 1993.03 959.148 1987.36 953.919C1981.69 948.69 1974.59 944.786 1966.7 942.571L1954.04 938.971C1949.48 937.676 1944.89 936.571 1940.24 935.657L1934.93 934.594L1931.1 937.863L1931.09 937.874C1930.58 938.277 1930.05 938.662 1929.51 939.029C1927.8 940.199 1925.99 941.247 1924.09 942.16C1918.28 945.064 1911.71 946.626 1905 946.697C1898.29 946.626 1891.72 945.064 1885.91 942.16C1883.42 940.94 1881.06 939.505 1878.9 937.874Z" fill="#006CA9"/>
<path d="M1009 861.143C1005.1 861.143 1001.23 861.808 997.626 863.1C994.02 864.393 990.743 866.287 987.983 868.674C985.223 871.062 983.034 873.897 981.54 877.017C980.046 880.137 979.277 883.48 979.277 886.857C979.277 890.234 980.046 893.578 981.54 896.698C983.034 899.817 985.223 902.652 987.983 905.04C990.743 907.428 994.02 909.322 997.626 910.614C1001.23 911.906 1005.1 912.571 1009 912.571C1016.88 912.571 1024.44 909.862 1030.02 905.04C1035.59 900.218 1038.72 893.677 1038.72 886.857C1038.72 880.037 1035.59 873.497 1030.02 868.674C1024.44 863.852 1016.88 861.143 1009 861.143ZM959.462 886.857C959.462 875.491 964.681 864.59 973.971 856.553C983.262 848.515 995.862 844 1009 844C1022.14 844 1034.74 848.515 1044.03 856.553C1053.32 864.59 1058.54 875.491 1058.54 886.857C1058.54 898.224 1053.32 909.124 1044.03 917.162C1034.74 925.199 1022.14 929.714 1009 929.714C995.862 929.714 983.262 925.199 973.971 917.162C964.681 909.124 959.462 898.224 959.462 886.857ZM973.518 953.36C975.261 954.48 977.507 955.794 980.189 957.097C986.966 960.411 996.9 963.84 1008.99 963.84C1021.07 963.84 1031.02 960.411 1037.8 957.097C1040.48 955.794 1042.73 954.48 1044.47 953.36C1046.95 953.931 1049.41 954.564 1051.85 955.257L1064.54 958.857C1074.05 961.566 1081.23 968.137 1083.8 976.263L1089.04 1008.99C1090.03 1015.21 1086.27 1019.73 1081.04 1020.8C1067.2 1023.66 1043.89 1026.86 1009 1026.86C974.112 1026.86 950.783 1023.66 936.952 1020.8C931.734 1019.73 927.969 1015.21 928.947 1008.99L934.191 976.263C935.494 972.211 937.936 968.501 941.299 965.464C944.662 962.427 948.841 960.157 953.465 958.857L966.146 955.257C968.577 954.571 971.034 953.939 973.518 953.36ZM982.897 937.874L979.053 934.594L973.742 935.646C969.11 936.56 964.513 937.669 959.951 938.971L947.269 942.571C939.391 944.787 932.288 948.69 926.62 953.917C920.952 959.144 916.904 965.525 914.851 972.469L914.719 972.926L909.329 1006.64C907.203 1019.94 915.432 1033.99 932.368 1037.47C947.824 1040.66 972.685 1044 1008.99 1044C1045.3 1044 1070.16 1040.66 1085.62 1037.49C1102.55 1033.99 1110.8 1019.94 1108.67 1006.65L1103.27 972.937L1103.14 972.48C1101.08 965.533 1097.03 959.148 1091.36 953.919C1085.69 948.69 1078.59 944.786 1070.7 942.571L1058.04 938.971C1053.48 937.676 1048.89 936.571 1044.24 935.657L1038.93 934.594L1035.1 937.863L1035.09 937.874C1034.58 938.277 1034.05 938.662 1033.51 939.029C1031.8 940.199 1029.99 941.247 1028.09 942.16C1022.28 945.064 1015.71 946.626 1009 946.697C1002.29 946.626 995.719 945.064 989.911 942.16C987.416 940.94 985.057 939.505 982.897 937.874Z" fill="#006CA9"/>
<path d="M1457 861.143C1453.1 861.143 1449.23 861.808 1445.63 863.1C1442.02 864.393 1438.74 866.287 1435.98 868.674C1433.22 871.062 1431.03 873.897 1429.54 877.017C1428.05 880.137 1427.28 883.48 1427.28 886.857C1427.28 890.234 1428.05 893.578 1429.54 896.698C1431.03 899.817 1433.22 902.652 1435.98 905.04C1438.74 907.428 1442.02 909.322 1445.63 910.614C1449.23 911.906 1453.1 912.571 1457 912.571C1464.88 912.571 1472.44 909.862 1478.02 905.04C1483.59 900.218 1486.72 893.677 1486.72 886.857C1486.72 880.037 1483.59 873.497 1478.02 868.674C1472.44 863.852 1464.88 861.143 1457 861.143ZM1407.46 886.857C1407.46 875.491 1412.68 864.59 1421.97 856.553C1431.26 848.515 1443.86 844 1457 844C1470.14 844 1482.74 848.515 1492.03 856.553C1501.32 864.59 1506.54 875.491 1506.54 886.857C1506.54 898.224 1501.32 909.124 1492.03 917.162C1482.74 925.199 1470.14 929.714 1457 929.714C1443.86 929.714 1431.26 925.199 1421.97 917.162C1412.68 909.124 1407.46 898.224 1407.46 886.857ZM1421.52 953.36C1423.26 954.48 1425.51 955.794 1428.19 957.097C1434.97 960.411 1444.9 963.84 1456.99 963.84C1469.07 963.84 1479.02 960.411 1485.8 957.097C1488.48 955.794 1490.73 954.48 1492.47 953.36C1494.95 953.931 1497.41 954.564 1499.85 955.257L1512.54 958.857C1522.05 961.566 1529.23 968.137 1531.8 976.263L1537.04 1008.99C1538.03 1015.21 1534.27 1019.73 1529.04 1020.8C1515.2 1023.66 1491.89 1026.86 1457 1026.86C1422.11 1026.86 1398.78 1023.66 1384.95 1020.8C1379.73 1019.73 1375.97 1015.21 1376.95 1008.99L1382.19 976.263C1383.49 972.211 1385.94 968.501 1389.3 965.464C1392.66 962.427 1396.84 960.157 1401.46 958.857L1414.15 955.257C1416.58 954.571 1419.03 953.939 1421.52 953.36ZM1430.9 937.874L1427.05 934.594L1421.74 935.646C1417.11 936.56 1412.51 937.669 1407.95 938.971L1395.27 942.571C1387.39 944.787 1380.29 948.69 1374.62 953.917C1368.95 959.144 1364.9 965.525 1362.85 972.469L1362.72 972.926L1357.33 1006.64C1355.2 1019.94 1363.43 1033.99 1380.37 1037.47C1395.82 1040.66 1420.69 1044 1456.99 1044C1493.3 1044 1518.16 1040.66 1533.62 1037.49C1550.55 1033.99 1558.8 1019.94 1556.67 1006.65L1551.27 972.937L1551.14 972.48C1549.08 965.533 1545.03 959.148 1539.36 953.919C1533.69 948.69 1526.59 944.786 1518.7 942.571L1506.04 938.971C1501.48 937.676 1496.89 936.571 1492.24 935.657L1486.93 934.594L1483.1 937.863L1483.09 937.874C1482.58 938.277 1482.05 938.662 1481.51 939.029C1479.8 940.199 1477.99 941.247 1476.09 942.16C1470.28 945.064 1463.71 946.626 1457 946.697C1450.29 946.626 1443.72 945.064 1437.91 942.16C1435.42 940.94 1433.06 939.505 1430.9 937.874Z" fill="#006CA9"/>
<path d="M1233 861.143C1229.1 861.143 1225.23 861.808 1221.63 863.1C1218.02 864.393 1214.74 866.287 1211.98 868.674C1209.22 871.062 1207.03 873.897 1205.54 877.017C1204.05 880.137 1203.28 883.48 1203.28 886.857C1203.28 890.234 1204.05 893.578 1205.54 896.698C1207.03 899.817 1209.22 902.652 1211.98 905.04C1214.74 907.428 1218.02 909.322 1221.63 910.614C1225.23 911.906 1229.1 912.571 1233 912.571C1240.88 912.571 1248.44 909.862 1254.02 905.04C1259.59 900.218 1262.72 893.677 1262.72 886.857C1262.72 880.037 1259.59 873.497 1254.02 868.674C1248.44 863.852 1240.88 861.143 1233 861.143ZM1183.46 886.857C1183.46 875.491 1188.68 864.59 1197.97 856.553C1207.26 848.515 1219.86 844 1233 844C1246.14 844 1258.74 848.515 1268.03 856.553C1277.32 864.59 1282.54 875.491 1282.54 886.857C1282.54 898.224 1277.32 909.124 1268.03 917.162C1258.74 925.199 1246.14 929.714 1233 929.714C1219.86 929.714 1207.26 925.199 1197.97 917.162C1188.68 909.124 1183.46 898.224 1183.46 886.857ZM1197.52 953.36C1199.26 954.48 1201.51 955.794 1204.19 957.097C1210.97 960.411 1220.9 963.84 1232.99 963.84C1245.07 963.84 1255.02 960.411 1261.8 957.097C1264.48 955.794 1266.73 954.48 1268.47 953.36C1270.95 953.931 1273.41 954.564 1275.85 955.257L1288.54 958.857C1298.05 961.566 1305.23 968.137 1307.8 976.263L1313.04 1008.99C1314.03 1015.21 1310.27 1019.73 1305.04 1020.8C1291.2 1023.66 1267.89 1026.86 1233 1026.86C1198.11 1026.86 1174.78 1023.66 1160.95 1020.8C1155.73 1019.73 1151.97 1015.21 1152.95 1008.99L1158.19 976.263C1159.49 972.211 1161.94 968.501 1165.3 965.464C1168.66 962.427 1172.84 960.157 1177.46 958.857L1190.15 955.257C1192.58 954.571 1195.03 953.939 1197.52 953.36ZM1206.9 937.874L1203.05 934.594L1197.74 935.646C1193.11 936.56 1188.51 937.669 1183.95 938.971L1171.27 942.571C1163.39 944.787 1156.29 948.69 1150.62 953.917C1144.95 959.144 1140.9 965.525 1138.85 972.469L1138.72 972.926L1133.33 1006.64C1131.2 1019.94 1139.43 1033.99 1156.37 1037.47C1171.82 1040.66 1196.69 1044 1232.99 1044C1269.3 1044 1294.16 1040.66 1309.62 1037.49C1326.55 1033.99 1334.8 1019.94 1332.67 1006.65L1327.27 972.937L1327.14 972.48C1325.08 965.533 1321.03 959.148 1315.36 953.919C1309.69 948.69 1302.59 944.786 1294.7 942.571L1282.04 938.971C1277.48 937.676 1272.89 936.571 1268.24 935.657L1262.93 934.594L1259.1 937.863L1259.09 937.874C1258.58 938.277 1258.05 938.662 1257.51 939.029C1255.8 940.199 1253.99 941.247 1252.09 942.16C1246.28 945.064 1239.71 946.626 1233 946.697C1226.29 946.626 1219.72 945.064 1213.91 942.16C1211.42 940.94 1209.06 939.505 1206.9 937.874Z" fill="#006CA9"/>
<path d="M4345 392.143C4341.1 392.143 4337.23 392.808 4333.63 394.1C4330.02 395.393 4326.74 397.287 4323.98 399.674C4321.22 402.062 4319.03 404.897 4317.54 408.017C4316.05 411.137 4315.28 414.48 4315.28 417.857C4315.28 421.234 4316.05 424.578 4317.54 427.698C4319.03 430.817 4321.22 433.652 4323.98 436.04C4326.74 438.428 4330.02 440.322 4333.63 441.614C4337.23 442.906 4341.1 443.571 4345 443.571C4352.88 443.571 4360.44 440.862 4366.02 436.04C4371.59 431.218 4374.72 424.677 4374.72 417.857C4374.72 411.037 4371.59 404.497 4366.02 399.674C4360.44 394.852 4352.88 392.143 4345 392.143ZM4295.46 417.857C4295.46 406.491 4300.68 395.59 4309.97 387.553C4319.26 379.515 4331.86 375 4345 375C4358.14 375 4370.74 379.515 4380.03 387.553C4389.32 395.59 4394.54 406.491 4394.54 417.857C4394.54 429.224 4389.32 440.124 4380.03 448.162C4370.74 456.199 4358.14 460.714 4345 460.714C4331.86 460.714 4319.26 456.199 4309.97 448.162C4300.68 440.124 4295.46 429.224 4295.46 417.857ZM4309.52 484.36C4311.26 485.48 4313.51 486.794 4316.19 488.097C4322.97 491.411 4332.9 494.84 4344.99 494.84C4357.07 494.84 4367.02 491.411 4373.8 488.097C4376.48 486.794 4378.73 485.48 4380.47 484.36C4382.95 484.931 4385.41 485.564 4387.85 486.257L4400.54 489.857C4410.05 492.566 4417.23 499.137 4419.8 507.263L4425.04 539.994C4426.03 546.211 4422.27 550.726 4417.04 551.8C4403.2 554.657 4379.89 557.857 4345 557.857C4310.11 557.857 4286.78 554.657 4272.95 551.8C4267.73 550.726 4263.97 546.211 4264.95 539.994L4270.19 507.263C4271.49 503.211 4273.94 499.501 4277.3 496.464C4280.66 493.427 4284.84 491.157 4289.46 489.857L4302.15 486.257C4304.58 485.571 4307.03 484.939 4309.52 484.36ZM4318.9 468.874L4315.05 465.594L4309.74 466.646C4305.11 467.56 4300.51 468.669 4295.95 469.971L4283.27 473.571C4275.39 475.787 4268.29 479.69 4262.62 484.917C4256.95 490.144 4252.9 496.525 4250.85 503.469L4250.72 503.926L4245.33 537.64C4243.2 550.943 4251.43 564.989 4268.37 568.474C4283.82 571.663 4308.69 575 4344.99 575C4381.3 575 4406.16 571.663 4421.62 568.486C4438.55 564.989 4446.8 550.943 4444.67 537.651L4439.27 503.937L4439.14 503.48C4437.08 496.533 4433.03 490.148 4427.36 484.919C4421.69 479.69 4414.59 475.786 4406.7 473.571L4394.04 469.971C4389.48 468.676 4384.89 467.571 4380.24 466.657L4374.93 465.594L4371.1 468.863L4371.09 468.874C4370.58 469.277 4370.05 469.662 4369.51 470.029C4367.8 471.199 4365.99 472.247 4364.09 473.16C4358.28 476.064 4351.71 477.626 4345 477.697C4338.29 477.626 4331.72 476.064 4325.91 473.16C4323.42 471.94 4321.06 470.505 4318.9 468.874Z" fill="#006CA9"/>
<path d="M4793 392.143C4789.1 392.143 4785.23 392.808 4781.63 394.1C4778.02 395.393 4774.74 397.287 4771.98 399.674C4769.22 402.062 4767.03 404.897 4765.54 408.017C4764.05 411.137 4763.28 414.48 4763.28 417.857C4763.28 421.234 4764.05 424.578 4765.54 427.698C4767.03 430.817 4769.22 433.652 4771.98 436.04C4774.74 438.428 4778.02 440.322 4781.63 441.614C4785.23 442.906 4789.1 443.571 4793 443.571C4800.88 443.571 4808.44 440.862 4814.02 436.04C4819.59 431.218 4822.72 424.677 4822.72 417.857C4822.72 411.037 4819.59 404.497 4814.02 399.674C4808.44 394.852 4800.88 392.143 4793 392.143ZM4743.46 417.857C4743.46 406.491 4748.68 395.59 4757.97 387.553C4767.26 379.515 4779.86 375 4793 375C4806.14 375 4818.74 379.515 4828.03 387.553C4837.32 395.59 4842.54 406.491 4842.54 417.857C4842.54 429.224 4837.32 440.124 4828.03 448.162C4818.74 456.199 4806.14 460.714 4793 460.714C4779.86 460.714 4767.26 456.199 4757.97 448.162C4748.68 440.124 4743.46 429.224 4743.46 417.857ZM4757.52 484.36C4759.26 485.48 4761.51 486.794 4764.19 488.097C4770.97 491.411 4780.9 494.84 4792.99 494.84C4805.07 494.84 4815.02 491.411 4821.8 488.097C4824.48 486.794 4826.73 485.48 4828.47 484.36C4830.95 484.931 4833.41 485.564 4835.85 486.257L4848.54 489.857C4858.05 492.566 4865.23 499.137 4867.8 507.263L4873.04 539.994C4874.03 546.211 4870.27 550.726 4865.04 551.8C4851.2 554.657 4827.89 557.857 4793 557.857C4758.11 557.857 4734.78 554.657 4720.95 551.8C4715.73 550.726 4711.97 546.211 4712.95 539.994L4718.19 507.263C4719.49 503.211 4721.94 499.501 4725.3 496.464C4728.66 493.427 4732.84 491.157 4737.46 489.857L4750.15 486.257C4752.58 485.571 4755.03 484.939 4757.52 484.36ZM4766.9 468.874L4763.05 465.594L4757.74 466.646C4753.11 467.56 4748.51 468.669 4743.95 469.971L4731.27 473.571C4723.39 475.787 4716.29 479.69 4710.62 484.917C4704.95 490.144 4700.9 496.525 4698.85 503.469L4698.72 503.926L4693.33 537.64C4691.2 550.943 4699.43 564.989 4716.37 568.474C4731.82 571.663 4756.69 575 4792.99 575C4829.3 575 4854.16 571.663 4869.62 568.486C4886.55 564.989 4894.8 550.943 4892.67 537.651L4887.27 503.937L4887.14 503.48C4885.08 496.533 4881.03 490.148 4875.36 484.919C4869.69 479.69 4862.59 475.786 4854.7 473.571L4842.04 469.971C4837.48 468.676 4832.89 467.571 4828.24 466.657L4822.93 465.594L4819.1 468.863L4819.09 468.874C4818.58 469.277 4818.05 469.662 4817.51 470.029C4815.8 471.199 4813.99 472.247 4812.09 473.16C4806.28 476.064 4799.71 477.626 4793 477.697C4786.29 477.626 4779.72 476.064 4773.91 473.16C4771.42 471.94 4769.06 470.505 4766.9 468.874Z" fill="#006CA9"/>
<path d="M4569 392.143C4565.1 392.143 4561.23 392.808 4557.63 394.1C4554.02 395.393 4550.74 397.287 4547.98 399.674C4545.22 402.062 4543.03 404.897 4541.54 408.017C4540.05 411.137 4539.28 414.48 4539.28 417.857C4539.28 421.234 4540.05 424.578 4541.54 427.698C4543.03 430.817 4545.22 433.652 4547.98 436.04C4550.74 438.428 4554.02 440.322 4557.63 441.614C4561.23 442.906 4565.1 443.571 4569 443.571C4576.88 443.571 4584.44 440.862 4590.02 436.04C4595.59 431.218 4598.72 424.677 4598.72 417.857C4598.72 411.037 4595.59 404.497 4590.02 399.674C4584.44 394.852 4576.88 392.143 4569 392.143ZM4519.46 417.857C4519.46 406.491 4524.68 395.59 4533.97 387.553C4543.26 379.515 4555.86 375 4569 375C4582.14 375 4594.74 379.515 4604.03 387.553C4613.32 395.59 4618.54 406.491 4618.54 417.857C4618.54 429.224 4613.32 440.124 4604.03 448.162C4594.74 456.199 4582.14 460.714 4569 460.714C4555.86 460.714 4543.26 456.199 4533.97 448.162C4524.68 440.124 4519.46 429.224 4519.46 417.857ZM4533.52 484.36C4535.26 485.48 4537.51 486.794 4540.19 488.097C4546.97 491.411 4556.9 494.84 4568.99 494.84C4581.07 494.84 4591.02 491.411 4597.8 488.097C4600.48 486.794 4602.73 485.48 4604.47 484.36C4606.95 484.931 4609.41 485.564 4611.85 486.257L4624.54 489.857C4634.05 492.566 4641.23 499.137 4643.8 507.263L4649.04 539.994C4650.03 546.211 4646.27 550.726 4641.04 551.8C4627.2 554.657 4603.89 557.857 4569 557.857C4534.11 557.857 4510.78 554.657 4496.95 551.8C4491.73 550.726 4487.97 546.211 4488.95 539.994L4494.19 507.263C4495.49 503.211 4497.94 499.501 4501.3 496.464C4504.66 493.427 4508.84 491.157 4513.46 489.857L4526.15 486.257C4528.58 485.571 4531.03 484.939 4533.52 484.36ZM4542.9 468.874L4539.05 465.594L4533.74 466.646C4529.11 467.56 4524.51 468.669 4519.95 469.971L4507.27 473.571C4499.39 475.787 4492.29 479.69 4486.62 484.917C4480.95 490.144 4476.9 496.525 4474.85 503.469L4474.72 503.926L4469.33 537.64C4467.2 550.943 4475.43 564.989 4492.37 568.474C4507.82 571.663 4532.69 575 4568.99 575C4605.3 575 4630.16 571.663 4645.62 568.486C4662.55 564.989 4670.8 550.943 4668.67 537.651L4663.27 503.937L4663.14 503.48C4661.08 496.533 4657.03 490.148 4651.36 484.919C4645.69 479.69 4638.59 475.786 4630.7 473.571L4618.04 469.971C4613.48 468.676 4608.89 467.571 4604.24 466.657L4598.93 465.594L4595.1 468.863L4595.09 468.874C4594.58 469.277 4594.05 469.662 4593.51 470.029C4591.8 471.199 4589.99 472.247 4588.09 473.16C4582.28 476.064 4575.71 477.626 4569 477.697C4562.29 477.626 4555.72 476.064 4549.91 473.16C4547.42 471.94 4545.06 470.505 4542.9 468.874Z" fill="#006CA9"/>
<path d="M3673 392.143C3669.1 392.143 3665.23 392.808 3661.63 394.1C3658.02 395.393 3654.74 397.287 3651.98 399.674C3649.22 402.062 3647.03 404.897 3645.54 408.017C3644.05 411.137 3643.28 414.48 3643.28 417.857C3643.28 421.234 3644.05 424.578 3645.54 427.698C3647.03 430.817 3649.22 433.652 3651.98 436.04C3654.74 438.428 3658.02 440.322 3661.63 441.614C3665.23 442.906 3669.1 443.571 3673 443.571C3680.88 443.571 3688.44 440.862 3694.02 436.04C3699.59 431.218 3702.72 424.677 3702.72 417.857C3702.72 411.037 3699.59 404.497 3694.02 399.674C3688.44 394.852 3680.88 392.143 3673 392.143ZM3623.46 417.857C3623.46 406.491 3628.68 395.59 3637.97 387.553C3647.26 379.515 3659.86 375 3673 375C3686.14 375 3698.74 379.515 3708.03 387.553C3717.32 395.59 3722.54 406.491 3722.54 417.857C3722.54 429.224 3717.32 440.124 3708.03 448.162C3698.74 456.199 3686.14 460.714 3673 460.714C3659.86 460.714 3647.26 456.199 3637.97 448.162C3628.68 440.124 3623.46 429.224 3623.46 417.857ZM3637.52 484.36C3639.26 485.48 3641.51 486.794 3644.19 488.097C3650.97 491.411 3660.9 494.84 3672.99 494.84C3685.07 494.84 3695.02 491.411 3701.8 488.097C3704.48 486.794 3706.73 485.48 3708.47 484.36C3710.95 484.931 3713.41 485.564 3715.85 486.257L3728.54 489.857C3738.05 492.566 3745.23 499.137 3747.8 507.263L3753.04 539.994C3754.03 546.211 3750.27 550.726 3745.04 551.8C3731.2 554.657 3707.89 557.857 3673 557.857C3638.11 557.857 3614.78 554.657 3600.95 551.8C3595.73 550.726 3591.97 546.211 3592.95 539.994L3598.19 507.263C3599.49 503.211 3601.94 499.501 3605.3 496.464C3608.66 493.427 3612.84 491.157 3617.46 489.857L3630.15 486.257C3632.58 485.571 3635.03 484.939 3637.52 484.36ZM3646.9 468.874L3643.05 465.594L3637.74 466.646C3633.11 467.56 3628.51 468.669 3623.95 469.971L3611.27 473.571C3603.39 475.787 3596.29 479.69 3590.62 484.917C3584.95 490.144 3580.9 496.525 3578.85 503.469L3578.72 503.926L3573.33 537.64C3571.2 550.943 3579.43 564.989 3596.37 568.474C3611.82 571.663 3636.69 575 3672.99 575C3709.3 575 3734.16 571.663 3749.62 568.486C3766.55 564.989 3774.8 550.943 3772.67 537.651L3767.27 503.937L3767.14 503.48C3765.08 496.533 3761.03 490.148 3755.36 484.919C3749.69 479.69 3742.59 475.786 3734.7 473.571L3722.04 469.971C3717.48 468.676 3712.89 467.571 3708.24 466.657L3702.93 465.594L3699.1 468.863L3699.09 468.874C3698.58 469.277 3698.05 469.662 3697.51 470.029C3695.8 471.199 3693.99 472.247 3692.09 473.16C3686.28 476.064 3679.71 477.626 3673 477.697C3666.29 477.626 3659.72 476.064 3653.91 473.16C3651.42 471.94 3649.06 470.505 3646.9 468.874Z" fill="#006CA9"/>
<path d="M4121 392.143C4117.1 392.143 4113.23 392.808 4109.63 394.1C4106.02 395.393 4102.74 397.287 4099.98 399.674C4097.22 402.062 4095.03 404.897 4093.54 408.017C4092.05 411.137 4091.28 414.48 4091.28 417.857C4091.28 421.234 4092.05 424.578 4093.54 427.698C4095.03 430.817 4097.22 433.652 4099.98 436.04C4102.74 438.428 4106.02 440.322 4109.63 441.614C4113.23 442.906 4117.1 443.571 4121 443.571C4128.88 443.571 4136.44 440.862 4142.02 436.04C4147.59 431.218 4150.72 424.677 4150.72 417.857C4150.72 411.037 4147.59 404.497 4142.02 399.674C4136.44 394.852 4128.88 392.143 4121 392.143ZM4071.46 417.857C4071.46 406.491 4076.68 395.59 4085.97 387.553C4095.26 379.515 4107.86 375 4121 375C4134.14 375 4146.74 379.515 4156.03 387.553C4165.32 395.59 4170.54 406.491 4170.54 417.857C4170.54 429.224 4165.32 440.124 4156.03 448.162C4146.74 456.199 4134.14 460.714 4121 460.714C4107.86 460.714 4095.26 456.199 4085.97 448.162C4076.68 440.124 4071.46 429.224 4071.46 417.857ZM4085.52 484.36C4087.26 485.48 4089.51 486.794 4092.19 488.097C4098.97 491.411 4108.9 494.84 4120.99 494.84C4133.07 494.84 4143.02 491.411 4149.8 488.097C4152.48 486.794 4154.73 485.48 4156.47 484.36C4158.95 484.931 4161.41 485.564 4163.85 486.257L4176.54 489.857C4186.05 492.566 4193.23 499.137 4195.8 507.263L4201.04 539.994C4202.03 546.211 4198.27 550.726 4193.04 551.8C4179.2 554.657 4155.89 557.857 4121 557.857C4086.11 557.857 4062.78 554.657 4048.95 551.8C4043.73 550.726 4039.97 546.211 4040.95 539.994L4046.19 507.263C4047.49 503.211 4049.94 499.501 4053.3 496.464C4056.66 493.427 4060.84 491.157 4065.46 489.857L4078.15 486.257C4080.58 485.571 4083.03 484.939 4085.52 484.36ZM4094.9 468.874L4091.05 465.594L4085.74 466.646C4081.11 467.56 4076.51 468.669 4071.95 469.971L4059.27 473.571C4051.39 475.787 4044.29 479.69 4038.62 484.917C4032.95 490.144 4028.9 496.525 4026.85 503.469L4026.72 503.926L4021.33 537.64C4019.2 550.943 4027.43 564.989 4044.37 568.474C4059.82 571.663 4084.69 575 4120.99 575C4157.3 575 4182.16 571.663 4197.62 568.486C4214.55 564.989 4222.8 550.943 4220.67 537.651L4215.27 503.937L4215.14 503.48C4213.08 496.533 4209.03 490.148 4203.36 484.919C4197.69 479.69 4190.59 475.786 4182.7 473.571L4170.04 469.971C4165.48 468.676 4160.89 467.571 4156.24 466.657L4150.93 465.594L4147.1 468.863L4147.09 468.874C4146.58 469.277 4146.05 469.662 4145.51 470.029C4143.8 471.199 4141.99 472.247 4140.09 473.16C4134.28 476.064 4127.71 477.626 4121 477.697C4114.29 477.626 4107.72 476.064 4101.91 473.16C4099.42 471.94 4097.06 470.505 4094.9 468.874Z" fill="#006CA9"/>
<path d="M3897 392.143C3893.1 392.143 3889.23 392.808 3885.63 394.1C3882.02 395.393 3878.74 397.287 3875.98 399.674C3873.22 402.062 3871.03 404.897 3869.54 408.017C3868.05 411.137 3867.28 414.48 3867.28 417.857C3867.28 421.234 3868.05 424.578 3869.54 427.698C3871.03 430.817 3873.22 433.652 3875.98 436.04C3878.74 438.428 3882.02 440.322 3885.63 441.614C3889.23 442.906 3893.1 443.571 3897 443.571C3904.88 443.571 3912.44 440.862 3918.02 436.04C3923.59 431.218 3926.72 424.677 3926.72 417.857C3926.72 411.037 3923.59 404.497 3918.02 399.674C3912.44 394.852 3904.88 392.143 3897 392.143ZM3847.46 417.857C3847.46 406.491 3852.68 395.59 3861.97 387.553C3871.26 379.515 3883.86 375 3897 375C3910.14 375 3922.74 379.515 3932.03 387.553C3941.32 395.59 3946.54 406.491 3946.54 417.857C3946.54 429.224 3941.32 440.124 3932.03 448.162C3922.74 456.199 3910.14 460.714 3897 460.714C3883.86 460.714 3871.26 456.199 3861.97 448.162C3852.68 440.124 3847.46 429.224 3847.46 417.857ZM3861.52 484.36C3863.26 485.48 3865.51 486.794 3868.19 488.097C3874.97 491.411 3884.9 494.84 3896.99 494.84C3909.07 494.84 3919.02 491.411 3925.8 488.097C3928.48 486.794 3930.73 485.48 3932.47 484.36C3934.95 484.931 3937.41 485.564 3939.85 486.257L3952.54 489.857C3962.05 492.566 3969.23 499.137 3971.8 507.263L3977.04 539.994C3978.03 546.211 3974.27 550.726 3969.04 551.8C3955.2 554.657 3931.89 557.857 3897 557.857C3862.11 557.857 3838.78 554.657 3824.95 551.8C3819.73 550.726 3815.97 546.211 3816.95 539.994L3822.19 507.263C3823.49 503.211 3825.94 499.501 3829.3 496.464C3832.66 493.427 3836.84 491.157 3841.46 489.857L3854.15 486.257C3856.58 485.571 3859.03 484.939 3861.52 484.36ZM3870.9 468.874L3867.05 465.594L3861.74 466.646C3857.11 467.56 3852.51 468.669 3847.95 469.971L3835.27 473.571C3827.39 475.787 3820.29 479.69 3814.62 484.917C3808.95 490.144 3804.9 496.525 3802.85 503.469L3802.72 503.926L3797.33 537.64C3795.2 550.943 3803.43 564.989 3820.37 568.474C3835.82 571.663 3860.69 575 3896.99 575C3933.3 575 3958.16 571.663 3973.62 568.486C3990.55 564.989 3998.8 550.943 3996.67 537.651L3991.27 503.937L3991.14 503.48C3989.08 496.533 3985.03 490.148 3979.36 484.919C3973.69 479.69 3966.59 475.786 3958.7 473.571L3946.04 469.971C3941.48 468.676 3936.89 467.571 3932.24 466.657L3926.93 465.594L3923.1 468.863L3923.09 468.874C3922.58 469.277 3922.05 469.662 3921.51 470.029C3919.8 471.199 3917.99 472.247 3916.09 473.16C3910.28 476.064 3903.71 477.626 3897 477.697C3890.29 477.626 3883.72 476.064 3877.91 473.16C3875.42 471.94 3873.06 470.505 3870.9 468.874Z" fill="#006CA9"/>
<path d="M3001 392.143C2997.1 392.143 2993.23 392.808 2989.63 394.1C2986.02 395.393 2982.74 397.287 2979.98 399.674C2977.22 402.062 2975.03 404.897 2973.54 408.017C2972.05 411.137 2971.28 414.48 2971.28 417.857C2971.28 421.234 2972.05 424.578 2973.54 427.698C2975.03 430.817 2977.22 433.652 2979.98 436.04C2982.74 438.428 2986.02 440.322 2989.63 441.614C2993.23 442.906 2997.1 443.571 3001 443.571C3008.88 443.571 3016.44 440.862 3022.02 436.04C3027.59 431.218 3030.72 424.677 3030.72 417.857C3030.72 411.037 3027.59 404.497 3022.02 399.674C3016.44 394.852 3008.88 392.143 3001 392.143ZM2951.46 417.857C2951.46 406.491 2956.68 395.59 2965.97 387.553C2975.26 379.515 2987.86 375 3001 375C3014.14 375 3026.74 379.515 3036.03 387.553C3045.32 395.59 3050.54 406.491 3050.54 417.857C3050.54 429.224 3045.32 440.124 3036.03 448.162C3026.74 456.199 3014.14 460.714 3001 460.714C2987.86 460.714 2975.26 456.199 2965.97 448.162C2956.68 440.124 2951.46 429.224 2951.46 417.857ZM2965.52 484.36C2967.26 485.48 2969.51 486.794 2972.19 488.097C2978.97 491.411 2988.9 494.84 3000.99 494.84C3013.07 494.84 3023.02 491.411 3029.8 488.097C3032.48 486.794 3034.73 485.48 3036.47 484.36C3038.95 484.931 3041.41 485.564 3043.85 486.257L3056.54 489.857C3066.05 492.566 3073.23 499.137 3075.8 507.263L3081.04 539.994C3082.03 546.211 3078.27 550.726 3073.04 551.8C3059.2 554.657 3035.89 557.857 3001 557.857C2966.11 557.857 2942.78 554.657 2928.95 551.8C2923.73 550.726 2919.97 546.211 2920.95 539.994L2926.19 507.263C2927.49 503.211 2929.94 499.501 2933.3 496.464C2936.66 493.427 2940.84 491.157 2945.46 489.857L2958.15 486.257C2960.58 485.571 2963.03 484.939 2965.52 484.36ZM2974.9 468.874L2971.05 465.594L2965.74 466.646C2961.11 467.56 2956.51 468.669 2951.95 469.971L2939.27 473.571C2931.39 475.787 2924.29 479.69 2918.62 484.917C2912.95 490.144 2908.9 496.525 2906.85 503.469L2906.72 503.926L2901.33 537.64C2899.2 550.943 2907.43 564.989 2924.37 568.474C2939.82 571.663 2964.69 575 3000.99 575C3037.3 575 3062.16 571.663 3077.62 568.486C3094.55 564.989 3102.8 550.943 3100.67 537.651L3095.27 503.937L3095.14 503.48C3093.08 496.533 3089.03 490.148 3083.36 484.919C3077.69 479.69 3070.59 475.786 3062.7 473.571L3050.04 469.971C3045.48 468.676 3040.89 467.571 3036.24 466.657L3030.93 465.594L3027.1 468.863L3027.09 468.874C3026.58 469.277 3026.05 469.662 3025.51 470.029C3023.8 471.199 3021.99 472.247 3020.09 473.16C3014.28 476.064 3007.71 477.626 3001 477.697C2994.29 477.626 2987.72 476.064 2981.91 473.16C2979.42 471.94 2977.06 470.505 2974.9 468.874Z" fill="#006CA9"/>
<path d="M3449 392.143C3445.1 392.143 3441.23 392.808 3437.63 394.1C3434.02 395.393 3430.74 397.287 3427.98 399.674C3425.22 402.062 3423.03 404.897 3421.54 408.017C3420.05 411.137 3419.28 414.48 3419.28 417.857C3419.28 421.234 3420.05 424.578 3421.54 427.698C3423.03 430.817 3425.22 433.652 3427.98 436.04C3430.74 438.428 3434.02 440.322 3437.63 441.614C3441.23 442.906 3445.1 443.571 3449 443.571C3456.88 443.571 3464.44 440.862 3470.02 436.04C3475.59 431.218 3478.72 424.677 3478.72 417.857C3478.72 411.037 3475.59 404.497 3470.02 399.674C3464.44 394.852 3456.88 392.143 3449 392.143ZM3399.46 417.857C3399.46 406.491 3404.68 395.59 3413.97 387.553C3423.26 379.515 3435.86 375 3449 375C3462.14 375 3474.74 379.515 3484.03 387.553C3493.32 395.59 3498.54 406.491 3498.54 417.857C3498.54 429.224 3493.32 440.124 3484.03 448.162C3474.74 456.199 3462.14 460.714 3449 460.714C3435.86 460.714 3423.26 456.199 3413.97 448.162C3404.68 440.124 3399.46 429.224 3399.46 417.857ZM3413.52 484.36C3415.26 485.48 3417.51 486.794 3420.19 488.097C3426.97 491.411 3436.9 494.84 3448.99 494.84C3461.07 494.84 3471.02 491.411 3477.8 488.097C3480.48 486.794 3482.73 485.48 3484.47 484.36C3486.95 484.931 3489.41 485.564 3491.85 486.257L3504.54 489.857C3514.05 492.566 3521.23 499.137 3523.8 507.263L3529.04 539.994C3530.03 546.211 3526.27 550.726 3521.04 551.8C3507.2 554.657 3483.89 557.857 3449 557.857C3414.11 557.857 3390.78 554.657 3376.95 551.8C3371.73 550.726 3367.97 546.211 3368.95 539.994L3374.19 507.263C3375.49 503.211 3377.94 499.501 3381.3 496.464C3384.66 493.427 3388.84 491.157 3393.46 489.857L3406.15 486.257C3408.58 485.571 3411.03 484.939 3413.52 484.36ZM3422.9 468.874L3419.05 465.594L3413.74 466.646C3409.11 467.56 3404.51 468.669 3399.95 469.971L3387.27 473.571C3379.39 475.787 3372.29 479.69 3366.62 484.917C3360.95 490.144 3356.9 496.525 3354.85 503.469L3354.72 503.926L3349.33 537.64C3347.2 550.943 3355.43 564.989 3372.37 568.474C3387.82 571.663 3412.69 575 3448.99 575C3485.3 575 3510.16 571.663 3525.62 568.486C3542.55 564.989 3550.8 550.943 3548.67 537.651L3543.27 503.937L3543.14 503.48C3541.08 496.533 3537.03 490.148 3531.36 484.919C3525.69 479.69 3518.59 475.786 3510.7 473.571L3498.04 469.971C3493.48 468.676 3488.89 467.571 3484.24 466.657L3478.93 465.594L3475.1 468.863L3475.09 468.874C3474.58 469.277 3474.05 469.662 3473.51 470.029C3471.8 471.199 3469.99 472.247 3468.09 473.16C3462.28 476.064 3455.71 477.626 3449 477.697C3442.29 477.626 3435.72 476.064 3429.91 473.16C3427.42 471.94 3425.06 470.505 3422.9 468.874Z" fill="#006CA9"/>
<path d="M3225 392.143C3221.1 392.143 3217.23 392.808 3213.63 394.1C3210.02 395.393 3206.74 397.287 3203.98 399.674C3201.22 402.062 3199.03 404.897 3197.54 408.017C3196.05 411.137 3195.28 414.48 3195.28 417.857C3195.28 421.234 3196.05 424.578 3197.54 427.698C3199.03 430.817 3201.22 433.652 3203.98 436.04C3206.74 438.428 3210.02 440.322 3213.63 441.614C3217.23 442.906 3221.1 443.571 3225 443.571C3232.88 443.571 3240.44 440.862 3246.02 436.04C3251.59 431.218 3254.72 424.677 3254.72 417.857C3254.72 411.037 3251.59 404.497 3246.02 399.674C3240.44 394.852 3232.88 392.143 3225 392.143ZM3175.46 417.857C3175.46 406.491 3180.68 395.59 3189.97 387.553C3199.26 379.515 3211.86 375 3225 375C3238.14 375 3250.74 379.515 3260.03 387.553C3269.32 395.59 3274.54 406.491 3274.54 417.857C3274.54 429.224 3269.32 440.124 3260.03 448.162C3250.74 456.199 3238.14 460.714 3225 460.714C3211.86 460.714 3199.26 456.199 3189.97 448.162C3180.68 440.124 3175.46 429.224 3175.46 417.857ZM3189.52 484.36C3191.26 485.48 3193.51 486.794 3196.19 488.097C3202.97 491.411 3212.9 494.84 3224.99 494.84C3237.07 494.84 3247.02 491.411 3253.8 488.097C3256.48 486.794 3258.73 485.48 3260.47 484.36C3262.95 484.931 3265.41 485.564 3267.85 486.257L3280.54 489.857C3290.05 492.566 3297.23 499.137 3299.8 507.263L3305.04 539.994C3306.03 546.211 3302.27 550.726 3297.04 551.8C3283.2 554.657 3259.89 557.857 3225 557.857C3190.11 557.857 3166.78 554.657 3152.95 551.8C3147.73 550.726 3143.97 546.211 3144.95 539.994L3150.19 507.263C3151.49 503.211 3153.94 499.501 3157.3 496.464C3160.66 493.427 3164.84 491.157 3169.46 489.857L3182.15 486.257C3184.58 485.571 3187.03 484.939 3189.52 484.36ZM3198.9 468.874L3195.05 465.594L3189.74 466.646C3185.11 467.56 3180.51 468.669 3175.95 469.971L3163.27 473.571C3155.39 475.787 3148.29 479.69 3142.62 484.917C3136.95 490.144 3132.9 496.525 3130.85 503.469L3130.72 503.926L3125.33 537.64C3123.2 550.943 3131.43 564.989 3148.37 568.474C3163.82 571.663 3188.69 575 3224.99 575C3261.3 575 3286.16 571.663 3301.62 568.486C3318.55 564.989 3326.8 550.943 3324.67 537.651L3319.27 503.937L3319.14 503.48C3317.08 496.533 3313.03 490.148 3307.36 484.919C3301.69 479.69 3294.59 475.786 3286.7 473.571L3274.04 469.971C3269.48 468.676 3264.89 467.571 3260.24 466.657L3254.93 465.594L3251.1 468.863L3251.09 468.874C3250.58 469.277 3250.05 469.662 3249.51 470.029C3247.8 471.199 3245.99 472.247 3244.09 473.16C3238.28 476.064 3231.71 477.626 3225 477.697C3218.29 477.626 3211.72 476.064 3205.91 473.16C3203.42 471.94 3201.06 470.505 3198.9 468.874Z" fill="#006CA9"/>
<path d="M2329 392.143C2325.1 392.143 2321.23 392.808 2317.63 394.1C2314.02 395.393 2310.74 397.287 2307.98 399.674C2305.22 402.062 2303.03 404.897 2301.54 408.017C2300.05 411.137 2299.28 414.48 2299.28 417.857C2299.28 421.234 2300.05 424.578 2301.54 427.698C2303.03 430.817 2305.22 433.652 2307.98 436.04C2310.74 438.428 2314.02 440.322 2317.63 441.614C2321.23 442.906 2325.1 443.571 2329 443.571C2336.88 443.571 2344.44 440.862 2350.02 436.04C2355.59 431.218 2358.72 424.677 2358.72 417.857C2358.72 411.037 2355.59 404.497 2350.02 399.674C2344.44 394.852 2336.88 392.143 2329 392.143ZM2279.46 417.857C2279.46 406.491 2284.68 395.59 2293.97 387.553C2303.26 379.515 2315.86 375 2329 375C2342.14 375 2354.74 379.515 2364.03 387.553C2373.32 395.59 2378.54 406.491 2378.54 417.857C2378.54 429.224 2373.32 440.124 2364.03 448.162C2354.74 456.199 2342.14 460.714 2329 460.714C2315.86 460.714 2303.26 456.199 2293.97 448.162C2284.68 440.124 2279.46 429.224 2279.46 417.857ZM2293.52 484.36C2295.26 485.48 2297.51 486.794 2300.19 488.097C2306.97 491.411 2316.9 494.84 2328.99 494.84C2341.07 494.84 2351.02 491.411 2357.8 488.097C2360.48 486.794 2362.73 485.48 2364.47 484.36C2366.95 484.931 2369.41 485.564 2371.85 486.257L2384.54 489.857C2394.05 492.566 2401.23 499.137 2403.8 507.263L2409.04 539.994C2410.03 546.211 2406.27 550.726 2401.04 551.8C2387.2 554.657 2363.89 557.857 2329 557.857C2294.11 557.857 2270.78 554.657 2256.95 551.8C2251.73 550.726 2247.97 546.211 2248.95 539.994L2254.19 507.263C2255.49 503.211 2257.94 499.501 2261.3 496.464C2264.66 493.427 2268.84 491.157 2273.46 489.857L2286.15 486.257C2288.58 485.571 2291.03 484.939 2293.52 484.36ZM2302.9 468.874L2299.05 465.594L2293.74 466.646C2289.11 467.56 2284.51 468.669 2279.95 469.971L2267.27 473.571C2259.39 475.787 2252.29 479.69 2246.62 484.917C2240.95 490.144 2236.9 496.525 2234.85 503.469L2234.72 503.926L2229.33 537.64C2227.2 550.943 2235.43 564.989 2252.37 568.474C2267.82 571.663 2292.69 575 2328.99 575C2365.3 575 2390.16 571.663 2405.62 568.486C2422.55 564.989 2430.8 550.943 2428.67 537.651L2423.27 503.937L2423.14 503.48C2421.08 496.533 2417.03 490.148 2411.36 484.919C2405.69 479.69 2398.59 475.786 2390.7 473.571L2378.04 469.971C2373.48 468.676 2368.89 467.571 2364.24 466.657L2358.93 465.594L2355.1 468.863L2355.09 468.874C2354.58 469.277 2354.05 469.662 2353.51 470.029C2351.8 471.199 2349.99 472.247 2348.09 473.16C2342.28 476.064 2335.71 477.626 2329 477.697C2322.29 477.626 2315.72 476.064 2309.91 473.16C2307.42 471.94 2305.06 470.505 2302.9 468.874Z" fill="#006CA9"/>
<path d="M2777 392.143C2773.1 392.143 2769.23 392.808 2765.63 394.1C2762.02 395.393 2758.74 397.287 2755.98 399.674C2753.22 402.062 2751.03 404.897 2749.54 408.017C2748.05 411.137 2747.28 414.48 2747.28 417.857C2747.28 421.234 2748.05 424.578 2749.54 427.698C2751.03 430.817 2753.22 433.652 2755.98 436.04C2758.74 438.428 2762.02 440.322 2765.63 441.614C2769.23 442.906 2773.1 443.571 2777 443.571C2784.88 443.571 2792.44 440.862 2798.02 436.04C2803.59 431.218 2806.72 424.677 2806.72 417.857C2806.72 411.037 2803.59 404.497 2798.02 399.674C2792.44 394.852 2784.88 392.143 2777 392.143ZM2727.46 417.857C2727.46 406.491 2732.68 395.59 2741.97 387.553C2751.26 379.515 2763.86 375 2777 375C2790.14 375 2802.74 379.515 2812.03 387.553C2821.32 395.59 2826.54 406.491 2826.54 417.857C2826.54 429.224 2821.32 440.124 2812.03 448.162C2802.74 456.199 2790.14 460.714 2777 460.714C2763.86 460.714 2751.26 456.199 2741.97 448.162C2732.68 440.124 2727.46 429.224 2727.46 417.857ZM2741.52 484.36C2743.26 485.48 2745.51 486.794 2748.19 488.097C2754.97 491.411 2764.9 494.84 2776.99 494.84C2789.07 494.84 2799.02 491.411 2805.8 488.097C2808.48 486.794 2810.73 485.48 2812.47 484.36C2814.95 484.931 2817.41 485.564 2819.85 486.257L2832.54 489.857C2842.05 492.566 2849.23 499.137 2851.8 507.263L2857.04 539.994C2858.03 546.211 2854.27 550.726 2849.04 551.8C2835.2 554.657 2811.89 557.857 2777 557.857C2742.11 557.857 2718.78 554.657 2704.95 551.8C2699.73 550.726 2695.97 546.211 2696.95 539.994L2702.19 507.263C2703.49 503.211 2705.94 499.501 2709.3 496.464C2712.66 493.427 2716.84 491.157 2721.46 489.857L2734.15 486.257C2736.58 485.571 2739.03 484.939 2741.52 484.36ZM2750.9 468.874L2747.05 465.594L2741.74 466.646C2737.11 467.56 2732.51 468.669 2727.95 469.971L2715.27 473.571C2707.39 475.787 2700.29 479.69 2694.62 484.917C2688.95 490.144 2684.9 496.525 2682.85 503.469L2682.72 503.926L2677.33 537.64C2675.2 550.943 2683.43 564.989 2700.37 568.474C2715.82 571.663 2740.69 575 2776.99 575C2813.3 575 2838.16 571.663 2853.62 568.486C2870.55 564.989 2878.8 550.943 2876.67 537.651L2871.27 503.937L2871.14 503.48C2869.08 496.533 2865.03 490.148 2859.36 484.919C2853.69 479.69 2846.59 475.786 2838.7 473.571L2826.04 469.971C2821.48 468.676 2816.89 467.571 2812.24 466.657L2806.93 465.594L2803.1 468.863L2803.09 468.874C2802.58 469.277 2802.05 469.662 2801.51 470.029C2799.8 471.199 2797.99 472.247 2796.09 473.16C2790.28 476.064 2783.71 477.626 2777 477.697C2770.29 477.626 2763.72 476.064 2757.91 473.16C2755.42 471.94 2753.06 470.505 2750.9 468.874Z" fill="#006CA9"/>
<path d="M2553 392.143C2549.1 392.143 2545.23 392.808 2541.63 394.1C2538.02 395.393 2534.74 397.287 2531.98 399.674C2529.22 402.062 2527.03 404.897 2525.54 408.017C2524.05 411.137 2523.28 414.48 2523.28 417.857C2523.28 421.234 2524.05 424.578 2525.54 427.698C2527.03 430.817 2529.22 433.652 2531.98 436.04C2534.74 438.428 2538.02 440.322 2541.63 441.614C2545.23 442.906 2549.1 443.571 2553 443.571C2560.88 443.571 2568.44 440.862 2574.02 436.04C2579.59 431.218 2582.72 424.677 2582.72 417.857C2582.72 411.037 2579.59 404.497 2574.02 399.674C2568.44 394.852 2560.88 392.143 2553 392.143ZM2503.46 417.857C2503.46 406.491 2508.68 395.59 2517.97 387.553C2527.26 379.515 2539.86 375 2553 375C2566.14 375 2578.74 379.515 2588.03 387.553C2597.32 395.59 2602.54 406.491 2602.54 417.857C2602.54 429.224 2597.32 440.124 2588.03 448.162C2578.74 456.199 2566.14 460.714 2553 460.714C2539.86 460.714 2527.26 456.199 2517.97 448.162C2508.68 440.124 2503.46 429.224 2503.46 417.857ZM2517.52 484.36C2519.26 485.48 2521.51 486.794 2524.19 488.097C2530.97 491.411 2540.9 494.84 2552.99 494.84C2565.07 494.84 2575.02 491.411 2581.8 488.097C2584.48 486.794 2586.73 485.48 2588.47 484.36C2590.95 484.931 2593.41 485.564 2595.85 486.257L2608.54 489.857C2618.05 492.566 2625.23 499.137 2627.8 507.263L2633.04 539.994C2634.03 546.211 2630.27 550.726 2625.04 551.8C2611.2 554.657 2587.89 557.857 2553 557.857C2518.11 557.857 2494.78 554.657 2480.95 551.8C2475.73 550.726 2471.97 546.211 2472.95 539.994L2478.19 507.263C2479.49 503.211 2481.94 499.501 2485.3 496.464C2488.66 493.427 2492.84 491.157 2497.46 489.857L2510.15 486.257C2512.58 485.571 2515.03 484.939 2517.52 484.36ZM2526.9 468.874L2523.05 465.594L2517.74 466.646C2513.11 467.56 2508.51 468.669 2503.95 469.971L2491.27 473.571C2483.39 475.787 2476.29 479.69 2470.62 484.917C2464.95 490.144 2460.9 496.525 2458.85 503.469L2458.72 503.926L2453.33 537.64C2451.2 550.943 2459.43 564.989 2476.37 568.474C2491.82 571.663 2516.69 575 2552.99 575C2589.3 575 2614.16 571.663 2629.62 568.486C2646.55 564.989 2654.8 550.943 2652.67 537.651L2647.27 503.937L2647.14 503.48C2645.08 496.533 2641.03 490.148 2635.36 484.919C2629.69 479.69 2622.59 475.786 2614.7 473.571L2602.04 469.971C2597.48 468.676 2592.89 467.571 2588.24 466.657L2582.93 465.594L2579.1 468.863L2579.09 468.874C2578.58 469.277 2578.05 469.662 2577.51 470.029C2575.8 471.199 2573.99 472.247 2572.09 473.16C2566.28 476.064 2559.71 477.626 2553 477.697C2546.29 477.626 2539.72 476.064 2533.91 473.16C2531.42 471.94 2529.06 470.505 2526.9 468.874Z" fill="#006CA9"/>
<path d="M5006.54 1584.54C5008.49 1582.58 5008.49 1579.42 5006.54 1577.46L4974.72 1545.64C4972.77 1543.69 4969.6 1543.69 4967.65 1545.64C4965.7 1547.6 4965.7 1550.76 4967.65 1552.72L4995.93 1581L4967.65 1609.28C4965.7 1611.24 4965.7 1614.4 4967.65 1616.36C4969.6 1618.31 4972.77 1618.31 4974.72 1616.36L5006.54 1584.54ZM210.999 1581V1586H5003V1581V1576H210.999V1581Z" fill="#737370"/>
<path d="M214.537 117.464C212.584 115.512 209.418 115.512 207.465 117.464L175.646 149.284C173.693 151.237 173.693 154.403 175.646 156.355C177.598 158.308 180.764 158.308 182.717 156.355L211.001 128.071L239.285 156.355C241.238 158.308 244.404 158.308 246.356 156.355C248.309 154.403 248.309 151.237 246.356 149.284L214.537 117.464ZM211 1581L216 1581L216.001 121L211.001 121L206.001 121L206 1581L211 1581Z" fill="#737370"/>
<line x1="1338" y1="1500" x2="1338" y2="1674" stroke="#737370" stroke-width="10"/>
<line x1="124" y1="1117" x2="298" y2="1117" stroke="#737370" stroke-width="10"/>
<line x1="124" y1="258" x2="298" y2="258" stroke="#737370" stroke-width="10"/>
<line x1="124" y1="638" x2="298" y2="638" stroke="#737370" stroke-width="10"/>
<line x1="4674" y1="1500" x2="4674" y2="1674" stroke="#737370" stroke-width="10"/>
<line x1="3554" y1="1500" x2="3554" y2="1674" stroke="#737370" stroke-width="10"/>
<line x1="2434" y1="1500" x2="2434" y2="1674" stroke="#737370" stroke-width="10"/>
<path d="M1333.23 1771.99C1328.21 1771.99 1323.74 1771.07 1319.81 1769.22C1315.9 1767.38 1312.8 1764.83 1310.5 1761.59C1308.21 1758.35 1307.01 1754.63 1306.92 1750.44H1321.83C1322 1753.26 1323.18 1755.54 1325.38 1757.29C1327.58 1759.04 1330.2 1759.92 1333.23 1759.92C1335.65 1759.92 1337.78 1759.39 1339.62 1758.32C1341.49 1757.23 1342.95 1755.73 1343.99 1753.81C1345.06 1751.87 1345.59 1749.65 1345.59 1747.14C1345.59 1744.58 1345.04 1742.33 1343.96 1740.39C1342.89 1738.45 1341.41 1736.93 1339.52 1735.84C1337.62 1734.75 1335.46 1734.2 1333.02 1734.17C1330.89 1734.17 1328.82 1734.61 1326.8 1735.49C1324.81 1736.36 1323.26 1737.56 1322.15 1739.08L1308.48 1736.62L1311.92 1698.27H1356.38V1710.84H1324.6L1322.72 1729.06H1323.15C1324.42 1727.26 1326.35 1725.77 1328.93 1724.59C1331.51 1723.4 1334.4 1722.81 1337.6 1722.81C1341.98 1722.81 1345.88 1723.84 1349.32 1725.9C1352.75 1727.96 1355.46 1730.79 1357.45 1734.39C1359.44 1737.96 1360.42 1742.08 1360.4 1746.75C1360.42 1751.65 1359.28 1756 1356.99 1759.81C1354.72 1763.6 1351.53 1766.58 1347.44 1768.76C1343.36 1770.92 1338.63 1771.99 1333.23 1771.99Z" fill="#737370"/>
<path d="M1150.31 1164.92C1147.97 1164.92 1145.95 1164.09 1144.27 1162.44C1142.61 1160.76 1141.79 1158.74 1141.79 1156.4C1141.79 1154.08 1142.61 1152.09 1144.27 1150.43C1145.95 1148.78 1147.97 1147.95 1150.31 1147.95C1152.58 1147.95 1154.57 1148.78 1156.27 1150.43C1157.98 1152.09 1158.83 1154.08 1158.83 1156.4C1158.83 1157.96 1158.43 1159.4 1157.62 1160.7C1156.84 1161.98 1155.81 1163.01 1154.53 1163.79C1153.26 1164.54 1151.85 1164.92 1150.31 1164.92ZM1180.09 1164.92C1177.75 1164.92 1175.74 1164.09 1174.06 1162.44C1172.4 1160.76 1171.57 1158.74 1171.57 1156.4C1171.57 1154.08 1172.4 1152.09 1174.06 1150.43C1175.74 1148.78 1177.75 1147.95 1180.09 1147.95C1182.37 1147.95 1184.36 1148.78 1186.06 1150.43C1187.76 1152.09 1188.62 1154.08 1188.62 1156.4C1188.62 1157.96 1188.21 1159.4 1187.41 1160.7C1186.63 1161.98 1185.6 1163.01 1184.32 1163.79C1183.04 1164.54 1181.63 1164.92 1180.09 1164.92ZM1209.88 1164.92C1207.54 1164.92 1205.52 1164.09 1203.84 1162.44C1202.19 1160.76 1201.36 1158.74 1201.36 1156.4C1201.36 1154.08 1202.19 1152.09 1203.84 1150.43C1205.52 1148.78 1207.54 1147.95 1209.88 1147.95C1212.15 1147.95 1214.14 1148.78 1215.85 1150.43C1217.55 1152.09 1218.4 1154.08 1218.4 1156.4C1218.4 1157.96 1218 1159.4 1217.19 1160.7C1216.41 1161.98 1215.38 1163.01 1214.11 1163.79C1212.83 1164.54 1211.42 1164.92 1209.88 1164.92ZM1239.66 1164.92C1237.32 1164.92 1235.31 1164.09 1233.63 1162.44C1231.97 1160.76 1231.14 1158.74 1231.14 1156.4C1231.14 1154.08 1231.97 1152.09 1233.63 1150.43C1235.31 1148.78 1237.32 1147.95 1239.66 1147.95C1241.94 1147.95 1243.93 1148.78 1245.63 1150.43C1247.33 1152.09 1248.19 1154.08 1248.19 1156.4C1248.19 1157.96 1247.78 1159.4 1246.98 1160.7C1246.2 1161.98 1245.17 1163.01 1243.89 1163.79C1242.61 1164.54 1241.2 1164.92 1239.66 1164.92Z" fill="#737370"/>
<path d="M2539.17 679.923C2536.82 679.923 2534.81 679.095 2533.13 677.438C2531.47 675.757 2530.65 673.744 2530.65 671.401C2530.65 669.08 2531.47 667.092 2533.13 665.435C2534.81 663.777 2536.82 662.949 2539.17 662.949C2541.44 662.949 2543.43 663.777 2545.13 665.435C2546.84 667.092 2547.69 669.08 2547.69 671.401C2547.69 672.963 2547.29 674.395 2546.48 675.697C2545.7 676.976 2544.67 678.006 2543.39 678.787C2542.12 679.545 2540.71 679.923 2539.17 679.923ZM2568.95 679.923C2566.61 679.923 2564.6 679.095 2562.92 677.438C2561.26 675.757 2560.43 673.744 2560.43 671.401C2560.43 669.08 2561.26 667.092 2562.92 665.435C2564.6 663.777 2566.61 662.949 2568.95 662.949C2571.23 662.949 2573.21 663.777 2574.92 665.435C2576.62 667.092 2577.48 669.08 2577.48 671.401C2577.48 672.963 2577.07 674.395 2576.27 675.697C2575.49 676.976 2574.46 678.006 2573.18 678.787C2571.9 679.545 2570.49 679.923 2568.95 679.923ZM2598.74 679.923C2596.39 679.923 2594.38 679.095 2592.7 677.438C2591.04 675.757 2590.22 673.744 2590.22 671.401C2590.22 669.08 2591.04 667.092 2592.7 665.435C2594.38 663.777 2596.39 662.949 2598.74 662.949C2601.01 662.949 2603 663.777 2604.7 665.435C2606.41 667.092 2607.26 669.08 2607.26 671.401C2607.26 672.963 2606.86 674.395 2606.05 675.697C2605.27 676.976 2604.24 678.006 2602.96 678.787C2601.69 679.545 2600.28 679.923 2598.74 679.923ZM2628.52 679.923C2626.18 679.923 2624.17 679.095 2622.49 677.438C2620.83 675.757 2620 673.744 2620 671.401C2620 669.08 2620.83 667.092 2622.49 665.435C2624.17 663.777 2626.18 662.949 2628.52 662.949C2630.8 662.949 2632.79 663.777 2634.49 665.435C2636.19 667.092 2637.05 669.08 2637.05 671.401C2637.05 672.963 2636.64 674.395 2635.84 675.697C2635.06 676.976 2634.03 678.006 2632.75 678.787C2631.47 679.545 2630.06 679.923 2628.52 679.923ZM2658.31 679.923C2655.97 679.923 2653.95 679.095 2652.27 677.438C2650.61 675.757 2649.79 673.744 2649.79 671.401C2649.79 669.08 2650.61 667.092 2652.27 665.435C2653.95 663.777 2655.97 662.949 2658.31 662.949C2660.58 662.949 2662.57 663.777 2664.27 665.435C2665.98 667.092 2666.83 669.08 2666.83 671.401C2666.83 672.963 2666.43 674.395 2665.62 675.697C2664.84 676.976 2663.81 678.006 2662.53 678.787C2661.26 679.545 2659.85 679.923 2658.31 679.923ZM2688.09 679.923C2685.75 679.923 2683.74 679.095 2682.06 677.438C2680.4 675.757 2679.57 673.744 2679.57 671.401C2679.57 669.08 2680.4 667.092 2682.06 665.435C2683.74 663.777 2685.75 662.949 2688.09 662.949C2690.37 662.949 2692.36 663.777 2694.06 665.435C2695.76 667.092 2696.62 669.08 2696.62 671.401C2696.62 672.963 2696.21 674.395 2695.41 675.697C2694.63 676.976 2693.6 678.006 2692.32 678.787C2691.04 679.545 2689.63 679.923 2688.09 679.923ZM2717.88 679.923C2715.54 679.923 2713.52 679.095 2711.84 677.438C2710.19 675.757 2709.36 673.744 2709.36 671.401C2709.36 669.08 2710.19 667.092 2711.84 665.435C2713.52 663.777 2715.54 662.949 2717.88 662.949C2720.15 662.949 2722.14 663.777 2723.85 665.435C2725.55 667.092 2726.4 669.08 2726.4 671.401C2726.4 672.963 2726 674.395 2725.19 675.697C2724.41 676.976 2723.38 678.006 2722.11 678.787C2720.83 679.545 2719.42 679.923 2717.88 679.923ZM2747.66 679.923C2745.32 679.923 2743.31 679.095 2741.63 677.438C2739.97 675.757 2739.14 673.744 2739.14 671.401C2739.14 669.08 2739.97 667.092 2741.63 665.435C2743.31 663.777 2745.32 662.949 2747.66 662.949C2749.94 662.949 2751.93 663.777 2753.63 665.435C2755.33 667.092 2756.19 669.08 2756.19 671.401C2756.19 672.963 2755.78 674.395 2754.98 675.697C2754.2 676.976 2753.17 678.006 2751.89 678.787C2750.61 679.545 2749.2 679.923 2747.66 679.923ZM2777.45 679.923C2775.11 679.923 2773.09 679.095 2771.41 677.438C2769.76 675.757 2768.93 673.744 2768.93 671.401C2768.93 669.08 2769.76 667.092 2771.41 665.435C2773.09 663.777 2775.11 662.949 2777.45 662.949C2779.72 662.949 2781.71 663.777 2783.42 665.435C2785.12 667.092 2785.97 669.08 2785.97 671.401C2785.97 672.963 2785.57 674.395 2784.76 675.697C2783.98 676.976 2782.95 678.006 2781.68 678.787C2780.4 679.545 2778.99 679.923 2777.45 679.923ZM2807.23 679.923C2804.89 679.923 2802.88 679.095 2801.2 677.438C2799.54 675.757 2798.71 673.744 2798.71 671.401C2798.71 669.08 2799.54 667.092 2801.2 665.435C2802.88 663.777 2804.89 662.949 2807.23 662.949C2809.51 662.949 2811.5 663.777 2813.2 665.435C2814.91 667.092 2815.76 669.08 2815.76 671.401C2815.76 672.963 2815.35 674.395 2814.55 675.697C2813.77 676.976 2812.74 678.006 2811.46 678.787C2810.18 679.545 2808.77 679.923 2807.23 679.923ZM2837.02 679.923C2834.68 679.923 2832.66 679.095 2830.98 677.438C2829.33 675.757 2828.5 673.744 2828.5 671.401C2828.5 669.08 2829.33 667.092 2830.98 665.435C2832.66 663.777 2834.68 662.949 2837.02 662.949C2839.29 662.949 2841.28 663.777 2842.99 665.435C2844.69 667.092 2845.54 669.08 2845.54 671.401C2845.54 672.963 2845.14 674.395 2844.34 675.697C2843.55 676.976 2842.52 678.006 2841.25 678.787C2839.97 679.545 2838.56 679.923 2837.02 679.923ZM2866.81 679.923C2864.46 679.923 2862.45 679.095 2860.77 677.438C2859.11 675.757 2858.28 673.744 2858.28 671.401C2858.28 669.08 2859.11 667.092 2860.77 665.435C2862.45 663.777 2864.46 662.949 2866.81 662.949C2869.08 662.949 2871.07 663.777 2872.77 665.435C2874.48 667.092 2875.33 669.08 2875.33 671.401C2875.33 672.963 2874.93 674.395 2874.12 675.697C2873.34 676.976 2872.31 678.006 2871.03 678.787C2869.75 679.545 2868.34 679.923 2866.81 679.923Z" fill="#737370"/>
<path d="M645.769 1635.55V1781H619.206L555.925 1689.45H554.86V1781H524.107V1635.55H551.096L613.88 1727.02H615.158V1635.55H645.769Z" fill="#FA8F00"/>
<path d="M396.017 1238V1092.55H453.403C464.388 1092.55 473.763 1094.51 481.528 1098.44C489.341 1102.32 495.283 1107.84 499.355 1114.99C503.474 1122.09 505.534 1130.45 505.534 1140.06C505.534 1149.72 503.451 1158.03 499.284 1164.99C495.117 1171.9 489.08 1177.2 481.173 1180.9C473.313 1184.59 463.796 1186.44 452.622 1186.44H414.199V1161.72H447.651C453.522 1161.72 458.399 1160.92 462.281 1159.31C466.164 1157.7 469.052 1155.28 470.946 1152.06C472.887 1148.84 473.858 1144.84 473.858 1140.06C473.858 1135.23 472.887 1131.16 470.946 1127.84C469.052 1124.53 466.14 1122.02 462.21 1120.32C458.328 1118.56 453.427 1117.69 447.509 1117.69H426.77V1238H396.017ZM474.568 1171.81L510.719 1238H476.77L441.401 1171.81H474.568Z" fill="#FA8F00"/>
<path d="M4833.31 1844.9V1819.55H4952.77V1844.9H4908.23V1965H4877.84V1844.9H4833.31Z" fill="#FA8F00"/>
<path d="M61.9867 1159.6C55.8787 1159.57 50.623 1158.07 46.2196 1155.09C41.8399 1152.11 38.4663 1147.78 36.0989 1142.13C33.7551 1136.47 32.5951 1129.66 32.6188 1121.71C32.6188 1113.78 33.7907 1107.02 36.1344 1101.43C38.5018 1095.84 41.8754 1091.59 46.2551 1088.68C50.6586 1085.75 55.9024 1084.28 61.9867 1084.28C68.071 1084.28 73.303 1085.75 77.6827 1088.68C82.0861 1091.62 85.4715 1095.88 87.839 1101.47C90.2064 1107.03 91.3783 1113.78 91.3546 1121.71C91.3546 1129.69 90.1709 1136.5 87.8034 1142.16C85.4597 1147.82 82.098 1152.14 77.7182 1155.12C73.3385 1158.11 68.0946 1159.6 61.9867 1159.6ZM61.9867 1146.85C66.1534 1146.85 69.4796 1144.75 71.9654 1140.56C74.4512 1136.37 75.6822 1130.09 75.6586 1121.71C75.6586 1116.19 75.0904 1111.6 73.954 1107.93C72.8413 1104.26 71.2552 1101.5 69.1955 1099.65C67.1595 1097.81 64.7566 1096.88 61.9867 1096.88C57.8437 1096.88 54.5293 1098.96 52.0435 1103.1C49.5577 1107.24 48.303 1113.45 48.2793 1121.71C48.2793 1127.29 48.8356 1131.96 49.9483 1135.7C51.0847 1139.42 52.6827 1142.21 54.7424 1144.08C56.802 1145.93 59.2168 1146.85 61.9867 1146.85Z" fill="#737370"/>
<path d="M36.4007 299V287.92L62.2885 263.95C64.4902 261.82 66.3368 259.902 67.8283 258.197C69.3435 256.493 70.4917 254.824 71.2729 253.19C72.0542 251.533 72.4448 249.746 72.4448 247.828C72.4448 245.697 71.9595 243.863 70.9888 242.324C70.0182 240.761 68.6924 239.566 67.0115 238.737C65.3307 237.885 63.4249 237.459 61.2942 237.459C59.0688 237.459 57.1275 237.909 55.4703 238.808C53.8132 239.708 52.5347 240.998 51.6351 242.679C50.7355 244.36 50.2857 246.36 50.2857 248.68H35.6905C35.6905 243.922 36.7677 239.791 38.9221 236.287C41.0764 232.783 44.0949 230.072 47.9775 228.155C51.86 226.237 56.3345 225.278 61.4007 225.278C66.6091 225.278 71.1427 226.202 75.0016 228.048C78.8842 229.871 81.9026 232.404 84.057 235.648C86.2114 238.891 87.2885 242.608 87.2885 246.798C87.2885 249.545 86.744 252.255 85.655 254.93C84.5897 257.606 82.6839 260.577 79.9377 263.844C77.1915 267.087 73.3207 270.982 68.3255 275.527L57.7076 285.932V286.429H88.2473V299H36.4007Z" fill="#737370"/>
<path d="M106.949 97.8878C102.806 97.8878 99.0535 96.8224 95.6918 94.6918C92.3537 92.5374 89.7022 89.3769 87.7372 85.2102C85.7959 81.0199 84.8253 75.8826 84.8253 69.7983C84.8253 63.5483 85.8314 58.3518 87.8438 54.2088C89.8561 50.0421 92.5313 46.929 95.8693 44.8693C99.2311 42.786 102.912 41.7443 106.913 41.7443C109.967 41.7443 112.512 42.2652 114.548 43.3068C116.608 44.3248 118.265 45.6032 119.52 47.142C120.798 48.6572 121.769 50.1487 122.432 51.6165H122.893V24.2727H137.986V97H123.071V88.2642H122.432C121.722 89.7794 120.715 91.2827 119.413 92.7741C118.135 94.242 116.466 95.4612 114.406 96.4318C112.37 97.4025 109.884 97.8878 106.949 97.8878ZM111.743 85.8494C114.181 85.8494 116.241 85.1866 117.922 83.8608C119.626 82.5114 120.929 80.6293 121.828 78.2145C122.751 75.7997 123.213 72.9706 123.213 69.7273C123.213 66.4839 122.763 63.6667 121.864 61.2756C120.964 58.8845 119.662 57.0379 117.957 55.7358C116.253 54.4337 114.181 53.7827 111.743 53.7827C109.257 53.7827 107.162 54.4574 105.457 55.8068C103.753 57.1562 102.463 59.0265 101.587 61.4176C100.711 63.8087 100.273 66.5786 100.273 69.7273C100.273 72.8996 100.711 75.705 101.587 78.1435C102.486 80.5582 103.777 82.4522 105.457 83.8253C107.162 85.1747 109.257 85.8494 111.743 85.8494ZM165.978 98.0298C162.498 98.0298 159.396 97.4261 156.674 96.2188C153.951 94.9877 151.797 93.1766 150.211 90.7855C148.648 88.3707 147.867 85.3641 147.867 81.7656C147.867 78.7353 148.423 76.1903 149.536 74.1307C150.649 72.071 152.164 70.4138 154.081 69.1591C155.999 67.9044 158.177 66.9574 160.615 66.3182C163.078 65.679 165.658 65.2292 168.357 64.9688C171.529 64.6373 174.086 64.3295 176.027 64.0455C177.969 63.7377 179.377 63.2879 180.253 62.696C181.129 62.1042 181.567 61.2282 181.567 60.0682V59.8551C181.567 57.6061 180.857 55.866 179.436 54.6349C178.04 53.4039 176.051 52.7884 173.471 52.7884C170.748 52.7884 168.582 53.392 166.972 54.5994C165.362 55.7831 164.297 57.2746 163.776 59.0739L149.784 57.9375C150.495 54.6231 151.891 51.7585 153.975 49.3438C156.058 46.9053 158.745 45.035 162.036 43.733C165.35 42.4072 169.185 41.7443 173.542 41.7443C176.572 41.7443 179.472 42.0994 182.242 42.8097C185.035 43.5199 187.509 44.6207 189.664 46.1122C191.842 47.6037 193.558 49.5213 194.813 51.8651C196.068 54.1851 196.695 56.9669 196.695 60.2102V97H182.348V89.4361H181.922C181.046 91.1406 179.874 92.6439 178.407 93.946C176.939 95.2244 175.175 96.2306 173.115 96.9645C171.056 97.6747 168.676 98.0298 165.978 98.0298ZM170.31 87.5895C172.535 87.5895 174.5 87.1515 176.205 86.2756C177.909 85.3759 179.247 84.1686 180.218 82.6534C181.188 81.1383 181.674 79.4219 181.674 77.5043V71.7159C181.2 72.0237 180.549 72.3078 179.721 72.5682C178.916 72.8049 178.004 73.0298 176.986 73.2429C175.968 73.4323 174.95 73.6098 173.932 73.7756C172.914 73.9176 171.991 74.0478 171.162 74.1662C169.387 74.4266 167.836 74.8409 166.51 75.4091C165.185 75.9773 164.155 76.7467 163.421 77.7173C162.687 78.6643 162.32 79.848 162.32 81.2685C162.32 83.3281 163.066 84.9025 164.557 85.9915C166.072 87.0568 167.99 87.5895 170.31 87.5895ZM215.818 117.455C213.9 117.455 212.101 117.301 210.42 116.993C208.763 116.709 207.39 116.342 206.301 115.892L209.71 104.599C211.485 105.144 213.083 105.44 214.504 105.487C215.948 105.535 217.191 105.203 218.233 104.493C219.298 103.783 220.162 102.575 220.825 100.871L221.713 98.5625L202.146 42.4545H218.055L229.348 82.5114H229.916L241.315 42.4545H257.331L236.13 102.895C235.112 105.83 233.727 108.387 231.975 110.565C230.247 112.767 228.057 114.46 225.406 115.643C222.754 116.851 219.558 117.455 215.818 117.455ZM310.456 58.0085L296.606 58.8608C296.369 57.6771 295.86 56.6117 295.079 55.6648C294.298 54.6941 293.268 53.9247 291.99 53.3565C290.735 52.7647 289.232 52.4688 287.48 52.4688C285.136 52.4688 283.159 52.9659 281.549 53.9602C279.94 54.9309 279.135 56.233 279.135 57.8665C279.135 59.1686 279.655 60.2694 280.697 61.169C281.739 62.0687 283.526 62.7907 286.059 63.3352L295.931 65.3239C301.234 66.4129 305.188 68.1648 307.792 70.5795C310.396 72.9943 311.699 76.1667 311.699 80.0966C311.699 83.6714 310.645 86.8082 308.538 89.5071C306.455 92.206 303.59 94.313 299.944 95.8281C296.322 97.3196 292.144 98.0653 287.409 98.0653C280.188 98.0653 274.435 96.562 270.15 93.5554C265.889 90.5251 263.391 86.4058 262.657 81.1974L277.537 80.4162C277.986 82.6179 279.075 84.2988 280.804 85.4588C282.532 86.5952 284.745 87.1634 287.444 87.1634C290.096 87.1634 292.226 86.6544 293.836 85.6364C295.47 84.5947 296.298 83.2571 296.322 81.6236C296.298 80.2505 295.718 79.1259 294.582 78.25C293.446 77.3504 291.694 76.6638 289.326 76.1903L279.88 74.3082C274.554 73.2429 270.588 71.3963 267.984 68.7685C265.404 66.1406 264.113 62.7907 264.113 58.7188C264.113 55.215 265.06 52.1965 266.954 49.6634C268.872 47.1302 271.559 45.1771 275.015 43.804C278.495 42.4309 282.567 41.7443 287.231 41.7443C294.12 41.7443 299.542 43.2003 303.495 46.1122C307.473 49.0241 309.793 52.9896 310.456 58.0085Z" fill="#737370"/>
<path d="M4769.46 1500V1445.45H4784.59V1500H4769.46ZM4777.06 1438.42C4774.81 1438.42 4772.88 1437.68 4771.27 1436.19C4769.69 1434.67 4768.89 1432.86 4768.89 1430.75C4768.89 1428.67 4769.69 1426.88 4771.27 1425.39C4772.88 1423.88 4774.81 1423.12 4777.06 1423.12C4779.31 1423.12 4781.23 1423.88 4782.81 1425.39C4784.42 1426.88 4785.23 1428.67 4785.23 1430.75C4785.23 1432.86 4784.42 1434.67 4782.81 1436.19C4781.23 1437.68 4779.31 1438.42 4777.06 1438.42ZM4811.83 1468.47V1500H4796.71V1445.45H4811.12V1455.08H4811.76C4812.97 1451.91 4815 1449.4 4817.84 1447.55C4820.68 1445.68 4824.12 1444.74 4828.17 1444.74C4831.96 1444.74 4835.26 1445.57 4838.08 1447.23C4840.89 1448.89 4843.08 1451.25 4844.65 1454.33C4846.21 1457.39 4846.99 1461.03 4846.99 1465.27V1500H4831.86V1467.97C4831.89 1464.63 4831.03 1462.03 4829.31 1460.16C4827.58 1458.26 4825.2 1457.32 4822.17 1457.32C4820.13 1457.32 4818.33 1457.75 4816.77 1458.63C4815.23 1459.51 4814.02 1460.78 4813.15 1462.46C4812.3 1464.12 4811.86 1466.12 4811.83 1468.47ZM4888.25 1445.45V1456.82H4854.58V1445.45H4888.25ZM4862.29 1500V1441.51C4862.29 1437.56 4863.06 1434.28 4864.6 1431.68C4866.16 1429.07 4868.29 1427.12 4870.99 1425.82C4873.69 1424.51 4876.75 1423.86 4880.19 1423.86C4882.51 1423.86 4884.62 1424.04 4886.54 1424.4C4888.48 1424.75 4889.93 1425.07 4890.87 1425.36L4888.18 1436.72C4887.58 1436.53 4886.85 1436.35 4885.97 1436.19C4885.12 1436.02 4884.25 1435.94 4883.35 1435.94C4881.12 1435.94 4879.57 1436.46 4878.69 1437.5C4877.82 1438.52 4877.38 1439.95 4877.38 1441.8V1500H4862.29ZM4920.39 1501.07C4914.78 1501.07 4909.95 1499.93 4905.9 1497.66C4901.88 1495.36 4898.78 1492.12 4896.6 1487.93C4894.42 1483.71 4893.33 1478.73 4893.33 1472.98C4893.33 1467.37 4894.42 1462.44 4896.6 1458.2C4898.78 1453.97 4901.84 1450.66 4905.8 1448.3C4909.78 1445.93 4914.44 1444.74 4919.79 1444.74C4923.39 1444.74 4926.74 1445.32 4929.84 1446.48C4932.96 1447.62 4935.69 1449.34 4938.01 1451.63C4940.35 1453.93 4942.17 1456.82 4943.48 1460.3C4944.78 1463.75 4945.43 1467.8 4945.43 1472.44V1476.6H4899.37V1467.22H4931.19C4931.19 1465.04 4930.71 1463.12 4929.77 1461.43C4928.82 1459.75 4927.51 1458.44 4925.83 1457.49C4924.17 1456.52 4922.24 1456.04 4920.04 1456.04C4917.74 1456.04 4915.71 1456.57 4913.93 1457.63C4912.18 1458.68 4910.8 1460.09 4909.81 1461.86C4908.82 1463.61 4908.31 1465.57 4908.28 1467.72V1476.63C4908.28 1479.33 4908.78 1481.66 4909.78 1483.63C4910.79 1485.59 4912.23 1487.11 4914.07 1488.17C4915.92 1489.24 4918.11 1489.77 4920.64 1489.77C4922.32 1489.77 4923.86 1489.54 4925.26 1489.06C4926.65 1488.59 4927.85 1487.88 4928.84 1486.93C4929.84 1485.98 4930.6 1484.82 4931.12 1483.45L4945.11 1484.38C4944.4 1487.74 4942.94 1490.67 4940.74 1493.18C4938.56 1495.67 4935.75 1497.61 4932.29 1499.01C4928.86 1500.38 4924.89 1501.07 4920.39 1501.07ZM4979.95 1501.07C4974.36 1501.07 4969.55 1499.88 4965.53 1497.51C4961.53 1495.12 4958.45 1491.81 4956.29 1487.57C4954.16 1483.33 4953.1 1478.46 4953.1 1472.94C4953.1 1467.35 4954.18 1462.45 4956.33 1458.24C4958.51 1454 4961.6 1450.7 4965.6 1448.33C4969.6 1445.94 4974.36 1444.74 4979.87 1444.74C4984.63 1444.74 4988.8 1445.61 4992.37 1447.34C4995.95 1449.06 4998.78 1451.49 5000.86 1454.62C5002.95 1457.74 5004.09 1461.41 5004.31 1465.62H4990.03C4989.63 1462.9 4988.56 1460.71 4986.83 1459.06C4985.13 1457.37 4982.89 1456.53 4980.12 1456.53C4977.78 1456.53 4975.73 1457.17 4973.98 1458.45C4972.25 1459.71 4970.9 1461.54 4969.93 1463.96C4968.96 1466.37 4968.48 1469.29 4968.48 1472.73C4968.48 1476.21 4968.95 1479.17 4969.9 1481.61C4970.87 1484.04 4972.23 1485.9 4973.98 1487.18C4975.73 1488.46 4977.78 1489.1 4980.12 1489.1C4981.85 1489.1 4983.4 1488.74 4984.78 1488.03C4986.17 1487.32 4987.32 1486.29 4988.22 1484.94C4989.14 1483.57 4989.75 1481.92 4990.03 1480.01H5004.31C5004.07 1484.17 5002.93 1487.84 5000.9 1491.02C4998.88 1494.16 4996.1 1496.63 4992.55 1498.4C4989 1500.18 4984.8 1501.07 4979.95 1501.07ZM5043 1445.45V1456.82H5010.16V1445.45H5043ZM5017.61 1432.39H5032.74V1483.24C5032.74 1484.64 5032.96 1485.72 5033.38 1486.51C5033.81 1487.26 5034.4 1487.8 5035.16 1488.1C5035.94 1488.41 5036.84 1488.57 5037.86 1488.57C5038.57 1488.57 5039.28 1488.51 5039.99 1488.39C5040.7 1488.25 5041.24 1488.14 5041.62 1488.07L5044 1499.33C5043.24 1499.56 5042.18 1499.83 5040.8 1500.14C5039.43 1500.47 5037.76 1500.67 5035.8 1500.75C5032.15 1500.89 5028.95 1500.4 5026.21 1499.29C5023.49 1498.18 5021.37 1496.45 5019.85 1494.11C5018.34 1491.76 5017.59 1488.8 5017.61 1485.23V1432.39ZM5077.13 1501.07C5071.52 1501.07 5066.69 1499.93 5062.64 1497.66C5058.62 1495.36 5055.52 1492.12 5053.34 1487.93C5051.16 1483.71 5050.07 1478.73 5050.07 1472.98C5050.07 1467.37 5051.16 1462.44 5053.34 1458.2C5055.52 1453.97 5058.58 1450.66 5062.54 1448.3C5066.51 1445.93 5071.18 1444.74 5076.53 1444.74C5080.13 1444.74 5083.48 1445.32 5086.58 1446.48C5089.7 1447.62 5092.42 1449.34 5094.74 1451.63C5097.09 1453.93 5098.91 1456.82 5100.21 1460.3C5101.52 1463.75 5102.17 1467.8 5102.17 1472.44V1476.6H5056.11V1467.22H5087.93C5087.93 1465.04 5087.45 1463.12 5086.51 1461.43C5085.56 1459.75 5084.25 1458.44 5082.56 1457.49C5080.91 1456.52 5078.98 1456.04 5076.78 1456.04C5074.48 1456.04 5072.44 1456.57 5070.67 1457.63C5068.92 1458.68 5067.54 1460.09 5066.55 1461.86C5065.55 1463.61 5065.05 1465.57 5065.02 1467.72V1476.63C5065.02 1479.33 5065.52 1481.66 5066.51 1483.63C5067.53 1485.59 5068.96 1487.11 5070.81 1488.17C5072.66 1489.24 5074.85 1489.77 5077.38 1489.77C5079.06 1489.77 5080.6 1489.54 5082 1489.06C5083.39 1488.59 5084.59 1487.88 5085.58 1486.93C5086.58 1485.98 5087.33 1484.82 5087.86 1483.45L5101.85 1484.38C5101.14 1487.74 5099.68 1490.67 5097.48 1493.18C5095.3 1495.67 5092.48 1497.61 5089.03 1499.01C5085.59 1500.38 5081.63 1501.07 5077.13 1501.07ZM5132.14 1500.89C5128 1500.89 5124.24 1499.82 5120.88 1497.69C5117.54 1495.54 5114.89 1492.38 5112.93 1488.21C5110.99 1484.02 5110.01 1478.88 5110.01 1472.8C5110.01 1466.55 5111.02 1461.35 5113.03 1457.21C5115.05 1453.04 5117.72 1449.93 5121.06 1447.87C5124.42 1445.79 5128.1 1444.74 5132.1 1444.74C5135.16 1444.74 5137.7 1445.27 5139.74 1446.31C5141.8 1447.32 5143.45 1448.6 5144.71 1450.14C5145.99 1451.66 5146.96 1453.15 5147.62 1454.62H5148.08V1427.27H5163.18V1500H5148.26V1491.26H5147.62C5146.91 1492.78 5145.9 1494.28 5144.6 1495.77C5143.32 1497.24 5141.66 1498.46 5139.6 1499.43C5137.56 1500.4 5135.07 1500.89 5132.14 1500.89ZM5136.93 1488.85C5139.37 1488.85 5141.43 1488.19 5143.11 1486.86C5144.82 1485.51 5146.12 1483.63 5147.02 1481.21C5147.94 1478.8 5148.4 1475.97 5148.4 1472.73C5148.4 1469.48 5147.95 1466.67 5147.05 1464.28C5146.15 1461.88 5144.85 1460.04 5143.15 1458.74C5141.44 1457.43 5139.37 1456.78 5136.93 1456.78C5134.45 1456.78 5132.35 1457.46 5130.65 1458.81C5128.94 1460.16 5127.65 1462.03 5126.78 1464.42C5125.9 1466.81 5125.46 1469.58 5125.46 1472.73C5125.46 1475.9 5125.9 1478.71 5126.78 1481.14C5127.68 1483.56 5128.97 1485.45 5130.65 1486.83C5132.35 1488.17 5134.45 1488.85 5136.93 1488.85Z" fill="#737370"/>
<path d="M75.0726 606.273V679H59.6962V620.868H59.2701L42.6152 631.308V617.672L60.6195 606.273H75.0726Z" fill="#737370"/>
<path d="M4608.48 1771V1759.92L4634.36 1735.95C4636.57 1733.82 4638.41 1731.9 4639.9 1730.2C4641.42 1728.49 4642.57 1726.82 4643.35 1725.19C4644.13 1723.53 4644.52 1721.75 4644.52 1719.83C4644.52 1717.7 4644.04 1715.86 4643.06 1714.32C4642.09 1712.76 4640.77 1711.57 4639.09 1710.74C4637.41 1709.88 4635.5 1709.46 4633.37 1709.46C4631.15 1709.46 4629.2 1709.91 4627.55 1710.81C4625.89 1711.71 4624.61 1713 4623.71 1714.68C4622.81 1716.36 4622.36 1718.36 4622.36 1720.68H4607.77C4607.77 1715.92 4608.84 1711.79 4611 1708.29C4613.15 1704.78 4616.17 1702.07 4620.05 1700.15C4623.94 1698.24 4628.41 1697.28 4633.48 1697.28C4638.69 1697.28 4643.22 1698.2 4647.08 1700.05C4650.96 1701.87 4653.98 1704.4 4656.13 1707.65C4658.29 1710.89 4659.36 1714.61 4659.36 1718.8C4659.36 1721.54 4658.82 1724.26 4657.73 1726.93C4656.67 1729.61 4654.76 1732.58 4652.01 1735.84C4649.27 1739.09 4645.4 1742.98 4640.4 1747.53L4629.78 1757.93V1758.43H4660.32V1771H4608.48ZM4699.98 1772.6C4693.87 1772.57 4688.62 1771.07 4684.21 1768.09C4679.83 1765.11 4676.46 1760.78 4674.09 1755.13C4671.75 1749.47 4670.59 1742.66 4670.61 1734.71C4670.61 1726.78 4671.78 1720.02 4674.13 1714.43C4676.5 1708.84 4679.87 1704.59 4684.25 1701.68C4688.65 1698.75 4693.9 1697.28 4699.98 1697.28C4706.07 1697.28 4711.3 1698.75 4715.68 1701.68C4720.08 1704.62 4723.47 1708.88 4725.83 1714.47C4728.2 1720.03 4729.37 1726.78 4729.35 1734.71C4729.35 1742.69 4728.17 1749.5 4725.8 1755.16C4723.45 1760.82 4720.09 1765.14 4715.71 1768.12C4711.33 1771.11 4706.09 1772.6 4699.98 1772.6ZM4699.98 1759.85C4704.15 1759.85 4707.47 1757.75 4709.96 1753.56C4712.45 1749.37 4713.68 1743.09 4713.65 1734.71C4713.65 1729.19 4713.08 1724.6 4711.95 1720.93C4710.84 1717.26 4709.25 1714.5 4707.19 1712.65C4705.15 1710.81 4702.75 1709.88 4699.98 1709.88C4695.84 1709.88 4692.52 1711.96 4690.04 1716.1C4687.55 1720.24 4686.3 1726.45 4686.27 1734.71C4686.27 1740.29 4686.83 1744.96 4687.94 1748.7C4689.08 1752.42 4690.68 1755.21 4692.74 1757.08C4694.8 1758.93 4697.21 1759.85 4699.98 1759.85Z" fill="#737370"/>
<path d="M4846.44 1771V1759.92L4872.33 1735.95C4874.53 1733.82 4876.37 1731.9 4877.87 1730.2C4879.38 1728.49 4880.53 1726.82 4881.31 1725.19C4882.09 1723.53 4882.48 1721.75 4882.48 1719.83C4882.48 1717.7 4882 1715.86 4881.03 1714.32C4880.06 1712.76 4878.73 1711.57 4877.05 1710.74C4875.37 1709.88 4873.46 1709.46 4871.33 1709.46C4869.11 1709.46 4867.16 1709.91 4865.51 1710.81C4863.85 1711.71 4862.57 1713 4861.67 1714.68C4860.77 1716.36 4860.32 1718.36 4860.32 1720.68H4845.73C4845.73 1715.92 4846.8 1711.79 4848.96 1708.29C4851.11 1704.78 4854.13 1702.07 4858.01 1700.15C4861.9 1698.24 4866.37 1697.28 4871.44 1697.28C4876.65 1697.28 4881.18 1698.2 4885.04 1700.05C4888.92 1701.87 4891.94 1704.4 4894.09 1707.65C4896.25 1710.89 4897.33 1714.61 4897.33 1718.8C4897.33 1721.54 4896.78 1724.26 4895.69 1726.93C4894.63 1729.61 4892.72 1732.58 4889.97 1735.84C4887.23 1739.09 4883.36 1742.98 4878.36 1747.53L4867.74 1757.93V1758.43H4898.28V1771H4846.44ZM4941.07 1698.27V1771H4925.69V1712.87H4925.26L4908.61 1723.31V1709.67L4926.61 1698.27H4941.07Z" fill="#737370"/>
<path d="M3529.85 1698.27V1771H3514.47V1712.87H3514.04L3497.39 1723.31V1709.67L3515.39 1698.27H3529.85ZM3573.69 1771.99C3568.67 1771.99 3564.2 1771.07 3560.27 1769.22C3556.36 1767.38 3553.26 1764.83 3550.97 1761.59C3548.67 1758.35 3547.47 1754.63 3547.38 1750.44H3562.29C3562.46 1753.26 3563.64 1755.54 3565.85 1757.29C3568.05 1759.04 3570.66 1759.92 3573.69 1759.92C3576.11 1759.92 3578.24 1759.39 3580.09 1758.32C3581.96 1757.23 3583.41 1755.73 3584.45 1753.81C3585.52 1751.87 3586.05 1749.65 3586.05 1747.14C3586.05 1744.58 3585.51 1742.33 3584.42 1740.39C3583.35 1738.45 3581.87 1736.93 3579.98 1735.84C3578.09 1734.75 3575.92 1734.2 3573.48 1734.17C3571.35 1734.17 3569.28 1734.61 3567.27 1735.49C3565.28 1736.36 3563.73 1737.56 3562.61 1739.08L3548.94 1736.62L3552.39 1698.27H3596.85V1710.84H3565.06L3563.18 1729.06H3563.61C3564.89 1727.26 3566.82 1725.77 3569.4 1724.59C3571.98 1723.4 3574.87 1722.81 3578.06 1722.81C3582.44 1722.81 3586.35 1723.84 3589.78 1725.9C3593.21 1727.96 3595.92 1730.79 3597.91 1734.39C3599.9 1737.96 3600.88 1742.08 3600.86 1746.75C3600.88 1751.65 3599.75 1756 3597.45 1759.81C3595.18 1763.6 3591.99 1766.58 3587.9 1768.76C3583.83 1770.92 3579.09 1771.99 3573.69 1771.99Z" fill="#737370"/>
<path d="M2399.65 1698.27V1771H2384.27V1712.87H2383.85L2367.19 1723.31V1709.67L2385.2 1698.27H2399.65ZM2445.45 1772.6C2439.34 1772.57 2434.09 1771.07 2429.68 1768.09C2425.3 1765.11 2421.93 1760.78 2419.56 1755.13C2417.22 1749.47 2416.06 1742.66 2416.08 1734.71C2416.08 1726.78 2417.25 1720.02 2419.6 1714.43C2421.96 1708.84 2425.34 1704.59 2429.72 1701.68C2434.12 1698.75 2439.37 1697.28 2445.45 1697.28C2451.53 1697.28 2456.77 1698.75 2461.15 1701.68C2465.55 1704.62 2468.93 1708.88 2471.3 1714.47C2473.67 1720.03 2474.84 1726.78 2474.82 1734.71C2474.82 1742.69 2473.63 1749.5 2471.27 1755.16C2468.92 1760.82 2465.56 1765.14 2461.18 1768.12C2456.8 1771.11 2451.56 1772.6 2445.45 1772.6ZM2445.45 1759.85C2449.62 1759.85 2452.94 1757.75 2455.43 1753.56C2457.91 1749.37 2459.15 1743.09 2459.12 1734.71C2459.12 1729.19 2458.55 1724.6 2457.42 1720.93C2456.3 1717.26 2454.72 1714.5 2452.66 1712.65C2450.62 1710.81 2448.22 1709.88 2445.45 1709.88C2441.31 1709.88 2437.99 1711.96 2435.51 1716.1C2433.02 1720.24 2431.77 1726.45 2431.74 1734.71C2431.74 1740.29 2432.3 1744.96 2433.41 1748.7C2434.55 1752.42 2436.15 1755.21 2438.21 1757.08C2440.26 1758.93 2442.68 1759.85 2445.45 1759.85Z" fill="#737370"/>
<path d="M1013.69 1045.72C1014.65 1043.13 1013.32 1040.26 1010.72 1039.31L968.479 1023.8C965.887 1022.85 963.014 1024.18 962.063 1026.77C961.111 1029.36 962.441 1032.23 965.033 1033.19L1002.58 1046.97L988.799 1084.52C987.847 1087.11 989.178 1089.99 991.77 1090.94C994.362 1091.89 997.235 1090.56 998.187 1087.97L1013.69 1045.72ZM361 1344L363.101 1348.54L1011.1 1048.54L1009 1044L1006.9 1039.46L358.899 1339.46L361 1344Z" fill="#737370"/>
<path d="M2333.24 577.656C2334.7 575.316 2334 572.23 2331.66 570.764L2293.53 546.862C2291.19 545.396 2288.1 546.104 2286.64 548.443C2285.17 550.783 2285.88 553.869 2288.22 555.335L2322.11 576.581L2300.86 610.472C2299.4 612.812 2300.1 615.898 2302.44 617.364C2304.78 618.831 2307.87 618.123 2309.34 615.784L2333.24 577.656ZM1021 875L1022.12 879.873L2330.12 579.873L2329 575L2327.88 570.127L1019.88 870.127L1021 875Z" fill="#737370"/>
<path d="M2557.15 577.79C2558.69 575.499 2558.08 572.392 2555.79 570.851L2518.45 545.739C2516.16 544.198 2513.05 544.806 2511.51 547.098C2509.97 549.389 2510.58 552.496 2512.87 554.037L2546.06 576.359L2523.74 609.551C2522.2 611.843 2522.81 614.95 2525.1 616.491C2527.39 618.032 2530.5 617.423 2532.04 615.132L2557.15 577.79ZM1021 875L1021.96 879.907L2553.96 579.907L2553 575L2552.04 570.093L1020.04 870.093L1021 875Z" fill="#737370"/>
<path d="M4572.94 578.078C4574.64 575.901 4574.25 572.759 4572.08 571.059L4536.61 543.36C4534.44 541.661 4531.29 542.047 4529.59 544.223C4527.89 546.4 4528.28 549.542 4530.46 551.242L4561.98 575.863L4537.36 607.387C4535.66 609.564 4536.05 612.706 4538.22 614.406C4540.4 616.105 4543.54 615.719 4545.24 613.543L4572.94 578.078ZM2129 875L2129.61 879.963L4569.61 579.963L4569 575L4568.39 570.037L2128.39 870.037L2129 875Z" fill="#737370"/>
<path d="M4796.9 585.128C4798.63 582.973 4798.28 579.827 4796.13 578.099L4761.02 549.949C4758.87 548.221 4755.72 548.567 4753.99 550.722C4752.26 552.876 4752.61 556.023 4754.76 557.751L4785.97 582.773L4760.95 613.98C4759.22 616.134 4759.57 619.281 4761.72 621.009C4763.88 622.736 4767.02 622.39 4768.75 620.236L4796.9 585.128ZM2129 875L2129.55 879.97L4793.55 586.97L4793 582L4792.45 577.03L2128.45 870.03L2129 875Z" fill="#737370"/>
<path d="M1237.49 1046.19C1238.7 1043.71 1237.67 1040.72 1235.19 1039.51L1194.75 1019.77C1192.27 1018.56 1189.28 1019.59 1188.07 1022.07C1186.85 1024.55 1187.88 1027.54 1190.37 1028.76L1226.31 1046.3L1208.77 1082.25C1207.56 1084.73 1208.59 1087.72 1211.07 1088.93C1213.55 1090.15 1216.55 1089.12 1217.76 1086.63L1237.49 1046.19ZM361 1344L362.627 1348.73L1234.63 1048.73L1233 1044L1231.37 1039.27L359.373 1339.27L361 1344Z" fill="#737370"/>
<path d="M1909.34 1034.48C1910.71 1032.08 1909.88 1029.02 1907.48 1027.66L1868.39 1005.37C1865.99 1004 1862.93 1004.83 1861.56 1007.23C1860.2 1009.63 1861.03 1012.69 1863.43 1014.05L1898.18 1033.87L1878.37 1068.61C1877 1071.01 1877.83 1074.07 1880.23 1075.44C1882.63 1076.8 1885.69 1075.97 1887.05 1073.57L1909.34 1034.48ZM809 1332L810.32 1336.82L1906.32 1036.82L1905 1032L1903.68 1027.18L807.68 1327.18L809 1332Z" fill="#737370"/>
<path d="M2133.21 1046.7C2134.7 1044.38 2134.02 1041.28 2131.7 1039.79L2093.83 1015.49C2091.51 1014 2088.41 1014.67 2086.92 1016.99C2085.43 1019.32 2086.1 1022.41 2088.43 1023.9L2122.09 1045.51L2100.49 1079.17C2099 1081.49 2099.67 1084.59 2101.99 1086.08C2104.32 1087.57 2107.41 1086.9 2108.9 1084.57L2133.21 1046.7ZM809 1332L810.066 1336.89L2130.07 1048.89L2129 1044L2127.93 1039.11L807.934 1327.11L809 1332Z" fill="#737370"/>
</svg>
